<?xml version="1.0" encoding="utf-8"?>
<!-- Generator: Adobe Illustrator 24.0.1, SVG Export Plug-In . SVG Version: 6.00 Build 0)  -->
<svg version="1.1" id="Layer_1" xmlns="http://www.w3.org/2000/svg" xmlns:xlink="http://www.w3.org/1999/xlink" x="0px" y="0px"
	 viewBox="0 0 212.5 250.1" style="enable-background:new 0 0 212.5 250.1;" xml:space="preserve">
<style type="text/css">
	.st0{fill:#F2F2F2;}
	.st1{fill:#73FFF8;stroke:#FFFFFF;stroke-width:5;stroke-miterlimit:10;}
	.st2{enable-background:new    ;}
	.st3{fill:#FFFFFF;}
</style>
<title>adobexd</title>
<g id="Layer_2_1_">
	<g id="Logos">
		<rect x="21.3" y="68.6" class="st0" width="159.7" height="146.7"/>
		<path class="st1" d="M2.5,45.8v201.8H210V45.8H2.5z M108.9,190.7H92.5c-0.9,0.1-1.7-0.4-2-1.2c-6-12.4-12.2-25.4-18.5-38.8h-0.2
			c-5.7,12.6-11.9,26.4-17.9,38.9c-0.3,0.6-1,1-1.7,1H36.5c-0.9,0-1-0.8-0.6-1.3l25.8-49.7l-25-49.4c-0.3-0.3-0.3-0.9,0-1.2
			c0.2-0.2,0.4-0.3,0.7-0.2h16.2c0.9,0,1.4,0.2,1.7,1c6,12.5,12,24.9,17.6,37.5h0.2c5.5-12.4,11.5-25,17.3-37.3
			c0.5-0.8,0.8-1.2,1.7-1.2h15.2c0.8,0,1,0.6,0.6,1.4L83,137.9l26.4,51.2C109.9,189.9,109.6,190.7,108.9,190.7z M174.4,186
			c-7.5,3.6-15.8,5.5-24.1,5.5c-20.5,0-35.1-12.6-35.1-38.3c0-22,14.1-39.1,37.4-39.1c1.6,0,3.3,0,4.9,0.2V89.8c0-0.5,0.4-1,0.9-1
			h15.2c0.8,0,0.9,0.3,0.9,0.8v86.2c-0.1,3.1,0.1,6.2,0.5,9.3C175,185.7,175,185.8,174.4,186z M132.2,152.4
			c0,17.4,8.1,24.3,18.7,24.3c2.2,0.1,4.4-0.3,6.5-1v-46.7l0,0c-1.7-0.7-3.5-1-5.4-0.9C140.1,128.1,132.2,137.3,132.2,152.4
			L132.2,152.4z"/>
		<g class="st2">
			<path class="st3" d="M44.3,26l0.2-4.7h-5.1L38,26h-5.8L40,4.2h10L50.1,26H44.3z M43.1,9.5l-2.4,7.7h4L45,9.5H43.1z"/>
			<path class="st3" d="M65.2,4.2c2.6,0,4.5,0.7,5.7,2c0.8,1,1.2,2.3,1.2,3.8c0,0.5-0.1,1.1-0.2,1.7l-1.2,6.7
				c-0.4,2.3-1.4,4.1-3,5.5S64.2,26,61.7,26h-8.8l3.8-21.8H65.2z M63.3,9h-2l-2.1,12.3h2.9c0.9,0,1.7-0.3,2.2-0.8
				c0.5-0.5,0.9-1.4,1.1-2.5l0.9-5c0.1-0.4,0.1-0.8,0.1-1.2C66.4,9.9,65.4,9,63.3,9z"/>
			<path class="st3" d="M84.9,4c4.9,0,7.3,2,7.3,6c0,0.7-0.1,1.4-0.2,2.1l-1.1,6c-0.5,2.8-1.5,4.9-3.1,6.2s-3.9,2-6.8,2
				c-2.9,0-5-0.7-6.1-2c-0.8-0.9-1.2-2.2-1.2-3.8c0-0.7,0.1-1.5,0.2-2.4l1.1-6C76,6.7,79.3,4,84.9,4z M81.8,21.7
				c1,0,1.8-0.3,2.4-0.8c0.6-0.5,1-1.5,1.3-2.9l1-5.8c0.1-0.4,0.1-0.8,0.1-1.1c0-1.6-0.8-2.4-2.5-2.4c-2.1,0-3.3,1.2-3.7,3.5l-1,5.8
				c-0.1,0.5-0.1,1-0.1,1.6C79.3,21,80.1,21.7,81.8,21.7z"/>
			<path class="st3" d="M105.9,4.2c2.3,0,3.9,0.5,4.9,1.5c0.7,0.8,1.1,1.7,1.1,2.9c0,0.4,0,0.8-0.1,1.3l-0.3,1.5
				c-0.2,1.1-0.7,2-1.3,2.7c-0.6,0.6-1.2,1-1.7,1l0,0.2c0.6,0,1.1,0.3,1.7,0.9s0.9,1.4,0.9,2.2c0,0.3,0,0.7-0.1,1.1l-0.2,0.9
				c-0.3,1.7-1.1,3.1-2.3,4.1c-1.2,1-2.9,1.5-5.1,1.5H93.2l3.8-21.8H105.9z M103.1,17.1h-2.9l-0.7,4.2h2.9c0,0,0.1,0,0.1,0
				c0.9,0,1.7-0.2,2.2-0.7c0.5-0.4,0.8-1,0.8-1.6C105.6,17.8,104.7,17.1,103.1,17.1z M103.9,9h-2.3l-0.8,4.5h2.2
				c1.9,0,2.9-0.8,2.9-2.5c0-0.6-0.2-1.1-0.5-1.4S104.6,9,103.9,9z"/>
			<path class="st3" d="M128.3,26h-15.2L117,4.2h15.2L131.3,9h-9.7l-0.7,4.1h8l-0.8,4.7h-8l-0.6,3.5h9.7L128.3,26z"/>
			<path class="st3" d="M161.3,4.2l-8.5,11l4.7,10.8h-6.2l-3-7l-5,7h-6.2l8-10.8l-4.2-11h6.2l2.5,7.1l5.4-7.1H161.3z"/>
			<path class="st3" d="M172.1,4.2c2.6,0,4.5,0.7,5.7,2c0.8,1,1.2,2.3,1.2,3.8c0,0.5-0.1,1.1-0.2,1.7l-1.2,6.7
				c-0.4,2.3-1.4,4.1-3,5.5s-3.6,2.1-6.1,2.1h-8.8l3.8-21.8H172.1z M170.2,9h-2l-2.1,12.3h2.9c0.9,0,1.7-0.3,2.2-0.8
				c0.5-0.5,0.9-1.4,1.1-2.5l0.9-5c0.1-0.4,0.1-0.8,0.1-1.2C173.3,9.9,172.3,9,170.2,9z"/>
		</g>
	</g>
</g>
</svg>
