<svg xmlns="http://www.w3.org/2000/svg" viewBox="0 0 212.47 250.12"><title>adobexd</title><g id="Layer_2" data-name="Layer 2"><g id="Logos"><rect x="21.25" y="68.61" width="159.67" height="146.74" style="fill:#f2f2f2"/><path d="M2.5,45.81V247.62H210V45.81ZM108.87,190.66H92.47a1.84,1.84,0,0,1-2-1.23C84.45,177,78.32,164.07,72,150.68h-.19c-5.65,12.63-11.88,26.4-17.91,38.85a1.84,1.84,0,0,1-1.7,1H36.54c-.94,0-1-.76-.56-1.32l25.84-49.7-25-49.42a.83.83,0,0,1,.66-1.41H53.71c.94,0,1.41.19,1.69,1,6,12.54,12,24.89,17.64,37.53h.19c5.47-12.45,11.5-25,17.26-37.35.47-.75.75-1.22,1.69-1.22h15.19c.75,0,1,.56.56,1.41L83,137.94l26.4,51.21C109.91,189.91,109.63,190.66,108.87,190.66ZM174.42,186a56.24,56.24,0,0,1-24.15,5.47c-20.46,0-35.08-12.64-35.08-38.29,0-22,14.15-39.13,37.35-39.13a43.69,43.69,0,0,1,4.9.18V89.76a1,1,0,0,1,.94-1h15.19c.75,0,.94.29.94.76v86.19A67.34,67.34,0,0,0,175,185C175,185.66,175,185.76,174.42,186Zm-42.25-33.57c0,17.35,8.11,24.33,18.67,24.33a17.7,17.7,0,0,0,6.51-1V129.08h0a12.51,12.51,0,0,0-5.38-.94C140.09,128.14,132.17,137.28,132.17,152.47Z" style="fill:#73fff8;stroke:#fff;stroke-miterlimit:10;stroke-width:5px"/><text transform="translate(32.97 26.01)" style="font-size:30.243000030517578px;fill:#fff;font-family:FugazOne-Regular, Fugaz One">ADOBE XD</text></g></g></svg>