<?xml version="1.0" encoding="utf-8"?>
<!-- Generator: Adobe Illustrator 24.0.1, SVG Export Plug-In . SVG Version: 6.00 Build 0)  -->
<svg version="1.1" id="Layer_1" xmlns="http://www.w3.org/2000/svg" xmlns:xlink="http://www.w3.org/1999/xlink" x="0px" y="0px"
	 viewBox="0 0 216.9 272.2" style="enable-background:new 0 0 216.9 272.2;" xml:space="preserve">
<style type="text/css">
	.st0{fill:#73FFF8;stroke:#FFFFFF;stroke-width:5;stroke-miterlimit:10;}
	.st1{fill:#F2F2F2;stroke:#FFFFFF;stroke-width:3;stroke-linecap:round;stroke-linejoin:round;}
	.st2{fill:#FFFFFF;stroke:#FFFFFF;stroke-width:3;stroke-linecap:round;stroke-linejoin:round;}
	.st3{enable-background:new    ;}
	.st4{fill:#FFFFFF;}
</style>
<title>angular</title>
<g id="Layer_2_1_">
	<g id="Logos">
		<polygon class="st0" points="214.2,81.8 197.5,219.9 108.2,269.4 19.4,220.5 2.7,82.5 108.1,45.4 		"/>
		<path class="st1" d="M134.2,163.9l-26.4,12.3H80.1L67,208.9l-24.3,0.4l65.2-144.9L134.2,163.9z M131.7,157.7L108,110.9l-19.4,46
			h19.2L131.7,157.7L131.7,157.7z"/>
		<path class="st2" d="M107.9,64.4l0.2,46.5l22,46h-22.1v19.3h30.6l14.3,33.1l23.3,0.4L107.9,64.4z"/>
		<g class="st3">
			<path class="st4" d="M51.4,26.1l0.2-4.8h-5.1l-1.5,4.8h-5.8l7.8-21.8h10l0.1,21.8H51.4z M50.2,9.5l-2.4,7.7h4l0.3-7.7H50.2z"/>
			<path class="st4" d="M80.8,4.2l-3.8,21.8h-5.5l-3.8-11.9l-2.1,11.9h-5.5l3.8-21.8h5.6l3.8,11.2l2-11.2H80.8z"/>
			<path class="st4" d="M88.8,26.5c-2.9,0-4.8-0.7-5.9-2c-0.7-0.9-1.1-2.2-1.1-3.8c0-0.7,0.1-1.6,0.2-2.5l1.1-6.1
				C84,6.7,87.3,4,93,4c2.3,0,4.1,0.5,5.3,1.5c1.2,1,1.8,2.4,1.8,4.1c0,0.7-0.1,1.4-0.3,2.2c-0.2,0.7-0.4,1.3-0.6,1.6L99,14h-5.4
				c0.5-0.7,0.8-1.6,0.8-2.5c0-1.8-0.8-2.7-2.3-2.7c-2,0-3.3,1.2-3.7,3.5l-1,5.8c-0.1,0.5-0.2,1.1-0.2,1.6c0,1.4,0.8,2.1,2.5,2.1
				s2.7-0.8,3.2-2.5h-2.5l0.6-3.4h8l-0.5,2.6l-0.2,0.9C97.6,24.1,94.4,26.5,88.8,26.5z"/>
			<path class="st4" d="M115.9,24.5c-1.6,1.3-3.9,2-6.8,2c-2.9,0-5-0.7-6.1-2c-0.8-0.9-1.2-2.2-1.2-3.9c0-0.7,0.1-1.5,0.2-2.4
				l2.5-14h5.5l-2.5,13.9c-0.1,0.5-0.1,1-0.1,1.6c0,1.4,0.8,2.1,2.5,2.1c1,0,1.8-0.3,2.4-0.8c0.6-0.5,1-1.5,1.3-2.9l2.5-13.9h5.5
				l-2.5,14C118.6,21,117.5,23.1,115.9,24.5z"/>
			<path class="st4" d="M135.6,26.1h-13.8l3.8-21.8h5.5l-3,17.1h8.4L135.6,26.1z"/>
			<path class="st4" d="M148.9,26.1l0.2-4.8H144l-1.5,4.8h-5.8l7.8-21.8h10l0.1,21.8H148.9z M147.6,9.5l-2.4,7.7h4l0.3-7.7H147.6z"
				/>
			<path class="st4" d="M170.1,4.2c2.3,0,3.9,0.5,4.9,1.5c0.7,0.8,1.1,1.7,1.1,2.9c0,0.4,0,0.8-0.1,1.3l-0.4,2.4
				c-0.2,1.3-0.7,2.4-1.3,3.2c-0.6,0.8-1.3,1.4-2,1.7l2.8,8.9H169l-2.5-8.2h-1.9l-1.2,8.2h-5.8l3.8-21.8H170.1z M168.2,9H166
				l-0.8,5.3h2.1c1.1,0,1.8-0.3,2.3-0.8s0.7-1.2,0.7-2C170.3,9.8,169.6,9,168.2,9z"/>
		</g>
	</g>
</g>
</svg>
