<?xml version="1.0" encoding="utf-8"?>
<!-- Generator: Adobe Illustrator 24.0.1, SVG Export Plug-In . SVG Version: 6.00 Build 0)  -->
<svg version="1.1" id="Layer_1" xmlns="http://www.w3.org/2000/svg" xmlns:xlink="http://www.w3.org/1999/xlink" x="0px" y="0px"
	 viewBox="0 0 206.8 250.1" style="enable-background:new 0 0 206.8 250.1;" xml:space="preserve">
<style type="text/css">
	.st0{fill:#F2F2F2;}
	.st1{enable-background:new    ;}
	.st2{fill:#FFFFFF;}
	.st3{fill:#73FFF8;stroke:#FFFFFF;stroke-width:5;stroke-miterlimit:10;}
</style>
<title>bootstrap</title>
<g id="Layer_2_1_">
	<g id="Logos">
		<g id="Bootstrap">
			<rect x="42.5" y="70.2" class="st0" width="133.3" height="146.7"/>
			<g class="st1">
				<path class="st2" d="M26.5,4.2c2.3,0,3.9,0.5,4.9,1.5c0.7,0.8,1.1,1.7,1.1,2.9c0,0.4,0,0.8-0.1,1.3l-0.3,1.5
					c-0.2,1.1-0.7,2-1.3,2.7c-0.6,0.6-1.2,1-1.7,1l0,0.2c0.6,0,1.1,0.3,1.7,0.9s0.9,1.4,0.9,2.2c0,0.3,0,0.7-0.1,1.1l-0.2,0.9
					c-0.3,1.7-1.1,3.1-2.3,4.1c-1.2,1-2.9,1.5-5.1,1.5H13.9l3.8-21.8H26.5z M23.8,17.1h-2.9l-0.7,4.2h2.9c0,0,0.1,0,0.1,0
					c0.9,0,1.7-0.2,2.2-0.7s0.8-1,0.8-1.6C26.2,17.8,25.4,17.1,23.8,17.1z M24.6,9h-2.3l-0.8,4.5h2.2c1.9,0,2.9-0.8,2.9-2.5
					c0-0.6-0.2-1.1-0.5-1.4C25.8,9.1,25.3,9,24.6,9z"/>
				<path class="st2" d="M45.6,4c4.9,0,7.3,2,7.3,6c0,0.7-0.1,1.4-0.2,2.1l-1.1,6c-0.5,2.8-1.5,4.9-3.1,6.2s-3.9,2-6.8,2
					c-2.9,0-5-0.7-6.1-2c-0.8-0.9-1.2-2.2-1.2-3.8c0-0.7,0.1-1.5,0.2-2.4l1.1-6C36.6,6.7,39.9,4,45.6,4z M42.4,21.7
					c1,0,1.8-0.3,2.4-0.8c0.6-0.5,1-1.5,1.3-2.9l1-5.8c0.1-0.4,0.1-0.8,0.1-1.1c0-1.6-0.8-2.4-2.5-2.4c-2.1,0-3.3,1.2-3.7,3.5
					l-1,5.8c-0.1,0.5-0.1,1-0.1,1.6C39.9,21,40.7,21.7,42.4,21.7z"/>
			</g>
			<g class="st1">
				<path class="st2" d="M65.6,4c4.9,0,7.3,2,7.3,6c0,0.7-0.1,1.4-0.2,2.1l-1.1,6c-0.5,2.8-1.5,4.9-3.1,6.2c-1.6,1.4-3.9,2-6.8,2
					c-2.9,0-5-0.7-6.1-2c-0.8-0.9-1.2-2.2-1.2-3.8c0-0.7,0.1-1.5,0.2-2.4l1.1-6C56.7,6.7,60,4,65.6,4z M62.5,21.7
					c1,0,1.8-0.3,2.4-0.8c0.6-0.5,1-1.5,1.3-2.9l1-5.8c0.1-0.4,0.1-0.8,0.1-1.1c0-1.6-0.8-2.4-2.5-2.4c-2.1,0-3.3,1.2-3.7,3.5
					l-1,5.8c-0.1,0.5-0.1,1-0.1,1.6C60,21,60.8,21.7,62.5,21.7z"/>
			</g>
			<g class="st1">
				<path class="st2" d="M95.4,9h-7.4l-3,17.1h-5.5l3-17.1H75l0.8-4.7h20.4L95.4,9z"/>
				<path class="st2" d="M100.6,19.8c0,1.4,1,2.1,3,2.1c2,0,3-0.6,3-1.9c0-0.7-0.3-1.2-1-1.6c-0.7-0.4-1.5-0.8-2.5-1.1
					c-1-0.3-2-0.6-2.9-1c-1-0.4-1.8-1-2.5-1.8c-0.7-0.8-1-1.8-1-3c0-5.1,3.3-7.6,9.8-7.6c2.4,0,4.2,0.4,5.4,1.3s1.8,2.1,1.8,3.7
					c0,0.6-0.1,1.1-0.2,1.7s-0.3,0.9-0.5,1.1l-0.2,0.4h-5.4c0.4-0.5,0.7-1,0.7-1.8c0-1.3-0.9-2-2.6-2c-2.2,0-3.2,0.7-3.2,2.1
					c0,0.7,0.3,1.2,1,1.6c0.7,0.4,1.5,0.7,2.5,1c1,0.2,2,0.5,2.9,0.9c1,0.3,1.8,0.9,2.5,1.7c0.7,0.8,1,1.8,1,3.1
					c0,2.6-0.8,4.5-2.3,5.7s-3.9,1.9-7.1,1.9c-3.2,0-5.4-0.6-6.5-1.7c-0.9-0.8-1.3-2-1.3-3.5c0-0.6,0.1-1.2,0.2-1.8l0.1-0.5h5.4
					l-0.1,0.4C100.6,19.5,100.6,19.6,100.6,19.8z"/>
				<path class="st2" d="M136,9h-7.4l-3,17.1h-5.5l3-17.1h-7.5l0.8-4.7h20.4L136,9z"/>
				<path class="st2" d="M148.1,4.2c2.3,0,3.9,0.5,4.9,1.5c0.7,0.8,1.1,1.7,1.1,2.9c0,0.4,0,0.8-0.1,1.3l-0.4,2.4
					c-0.2,1.3-0.7,2.4-1.3,3.2c-0.6,0.8-1.3,1.4-2,1.7l2.8,8.8H147l-2.5-8.1h-1.9l-1.2,8.1h-5.8l3.8-21.8H148.1z M146.2,9h-2.3
					l-0.8,5.3h2.1c1.1,0,1.8-0.3,2.3-0.8c0.5-0.5,0.7-1.2,0.7-2C148.3,9.8,147.6,9,146.2,9z"/>
				<path class="st2" d="M166.1,26l0.2-4.7h-5.1l-1.5,4.7H154l7.8-21.8h10l0.1,21.8H166.1z M164.9,9.5l-2.4,7.7h4l0.3-7.7H164.9z"/>
				<path class="st2" d="M184.9,19.4h-3.6l-1.2,6.6h-5.4l3.8-21.8h9.2c2.3,0,3.9,0.5,4.9,1.6c0.7,0.8,1.1,1.8,1.1,3.1
					c0,0.4,0,0.9-0.1,1.3l-0.6,3.4c-0.3,1.7-1.2,3-2.7,4.1C188.9,18.8,187.1,19.4,184.9,19.4z M185.9,9h-2.7l-1,5.7h2.7
					c1.7,0,2.6-0.7,2.9-2.2l0.2-1.2c0-0.2,0.1-0.4,0.1-0.7s-0.2-0.6-0.5-1C187.2,9.1,186.7,9,185.9,9z"/>
			</g>
			<path class="st3" d="M96.8,135.7H81.1v-27.6h13.8c11.3,0,18.2,0.1,20.6,0.4c4,0.5,7,1.9,9.1,4.2c2.1,2.5,3.2,5.7,3.1,9
				c0.1,3.5-1.1,6.8-3.5,9.3c-2.7,2.5-6.1,4-9.7,4.3C112.1,135.6,106.2,135.7,96.8,135.7z"/>
			<path class="st3" d="M129.4,162.7c1.8,2.7,2.7,5.9,2.6,9.1c0,4.2-1.1,7.6-3.4,10.1c-2.3,2.5-5.4,4.2-8.8,4.8
				c-2.3,0.5-7.8,0.7-16.5,0.7H81.1v-31.9h19.5c10.9,0,18.1,0.6,21.3,1.7C124.9,158.2,127.5,160.1,129.4,162.7z"/>
			<path class="st3" d="M2.5,45.8v201.8h201.8V45.8H2.5z M153.1,188.8c-2.4,4.9-5.9,9.1-10.3,12.3c-4.8,3.2-10.4,5.2-16.1,5.6
				c-4,0.4-13.7,0.7-29,0.8H57V88.3h47.7c9.4,0,16.5,0.4,21.1,1.2c9.1,1.4,17.1,6.9,21.6,14.9c2.5,4.2,3.7,9.1,3.7,14
				c0,11.2-6.6,21.3-16.8,25.8c7.3,2.1,12.8,5.7,16.7,10.8c3.9,5.2,6,11.5,5.8,18C156.8,178.5,155.5,183.9,153.1,188.8L153.1,188.8z
				"/>
		</g>
	</g>
</g>
</svg>
