<svg xmlns="http://www.w3.org/2000/svg" viewBox="0 0 206.8 250.11"><title>bootstrap</title><g id="Layer_2" data-name="Layer 2"><g id="Logos"><g id="Bootstrap"><rect x="42.54" y="70.15" width="133.29" height="146.74" style="fill:#f2f2f2"/><text transform="translate(13.35 26.01)" style="font-size:30.243000030517578px;fill:#fff;font-family:FugazOne-Regular, Fugaz One">BO<tspan x="39.95" y="0" style="letter-spacing:-0.005005032151150962em">O</tspan><tspan x="59.88" y="0">TSTRAP</tspan></text><path d="M96.84,135.71H81.05V108.13H94.9q17,0,20.57.41c4,.5,7,1.88,9.06,4.18a13.09,13.09,0,0,1,3.06,9,12.6,12.6,0,0,1-3.54,9.31,15.84,15.84,0,0,1-9.72,4.26C112.05,135.57,106.23,135.71,96.84,135.71Z" style="fill:#73fff8;stroke:#fff;stroke-miterlimit:10;stroke-width:5px"/><path d="M129.37,162.71a15.53,15.53,0,0,1,2.6,9.11c0,4.22-1.12,7.61-3.37,10.13a15,15,0,0,1-8.75,4.75c-2.33.49-7.82.73-16.5.73H81.05V155.54h19.46c10.94,0,18.07.58,21.35,1.72A14.67,14.67,0,0,1,129.37,162.71Z" style="fill:#73fff8;stroke:#fff;stroke-miterlimit:10;stroke-width:5px"/><path d="M2.5,45.81v201.8H204.3V45.81Zm150.59,143a32.17,32.17,0,0,1-10.34,12.28,34.16,34.16,0,0,1-16.14,5.65q-6,.64-29,.81H57V88.29h47.66q14.14,0,21.1,1.18a30,30,0,0,1,21.61,14.88,27,27,0,0,1,3.66,14,28.32,28.32,0,0,1-16.76,25.85Q145.15,147.34,151,155a28.78,28.78,0,0,1,5.84,18A35.47,35.47,0,0,1,153.09,188.78Z" style="fill:#73fff8;stroke:#fff;stroke-miterlimit:10;stroke-width:5px"/></g></g></g></svg>