<?xml version="1.0" encoding="utf-8"?>
<!-- Generator: Adobe Illustrator 24.0.1, SVG Export Plug-In . SVG Version: 6.00 Build 0)  -->
<svg version="1.1" id="Layer_1" xmlns="http://www.w3.org/2000/svg" xmlns:xlink="http://www.w3.org/1999/xlink" x="0px" y="0px"
	 viewBox="0 0 205.5 273.4" style="enable-background:new 0 0 205.5 273.4;" xml:space="preserve">
<style type="text/css">
	.st0{fill:#73FFF8;stroke:#FFFFFF;stroke-width:5;stroke-miterlimit:10;}
	.st1{fill:#F2F2F2;stroke:#FFFFFF;stroke-width:3;stroke-linecap:round;stroke-linejoin:round;}
	.st2{fill:#FFFFFF;stroke:#FFFFFF;stroke-width:3;stroke-linecap:round;stroke-linejoin:round;}
	.st3{enable-background:new    ;}
	.st4{fill:#FFFFFF;}
</style>
<title>css</title>
<g id="Layer_2_1_">
	<g id="Logos">
		<g id="CSS">
			<polygon class="st0" points="184.9,248.6 102.7,270.8 20.5,248.6 2.7,46.8 202.7,46.8 			"/>
			<polygon class="st1" points="39.1,89.7 41.5,113.8 102.1,113.8 68.6,128.5 44.1,139.3 46.4,162.4 103.4,162.4 103.4,89.7 			"/>
			<polygon class="st1" points="102.7,200.3 74.6,194.9 72.9,175.4 47.7,175.4 51.5,214.1 102.7,228 103.4,227.8 103.4,200.2 			"/>
			<polygon class="st2" points="160.7,137.5 106.8,137.5 137.2,125.1 164.8,113.9 165,89.7 103.4,89.7 103.4,162.4 133.8,162.4 
				132.6,175.4 130.8,194.9 103.4,200.2 103.4,227.8 153.9,213.4 			"/>
			<g class="st3">
				<path class="st4" d="M80.9,27.3c-3,0-5-0.6-6.2-1.9c-0.8-0.9-1.2-2.2-1.2-3.8c0-0.7,0.1-1.5,0.2-2.3l1.3-7.2
					c0.9-5.3,4.3-7.9,10.2-7.9c2.4,0,4.2,0.5,5.5,1.5c1.2,1,1.9,2.4,1.9,4.2c0,0.8-0.1,1.7-0.4,2.5c-0.2,0.8-0.5,1.4-0.7,1.8
					l-0.3,0.6h-5.5c0.7-0.8,1-1.9,1-3.4c0-0.8-0.2-1.4-0.6-1.8c-0.4-0.4-1-0.7-1.7-0.7c-2.1,0-3.4,1.2-3.7,3.5l-1.1,6.3
					c-0.1,0.5-0.2,1.1-0.2,1.6c0,1.4,0.8,2.1,2.5,2.1c2,0,3.2-1.1,3.6-3.3h5.6L90.8,20C89.9,24.9,86.6,27.3,80.9,27.3z"/>
				<path class="st4" d="M99.1,20.5c0,1.4,1,2.2,3.1,2.2c2.1,0,3.1-0.6,3.1-1.9c0-0.7-0.4-1.3-1.1-1.7c-0.7-0.4-1.6-0.8-2.6-1.1
					c-1-0.3-2-0.6-3-1c-1-0.4-1.9-1-2.6-1.8c-0.7-0.8-1.1-1.8-1.1-3.1c0-5.2,3.4-7.8,10.1-7.8c2.5,0,4.3,0.5,5.6,1.4
					c1.3,0.9,1.9,2.2,1.9,3.9c0,0.6-0.1,1.2-0.2,1.7c-0.2,0.6-0.3,0.9-0.5,1.2l-0.2,0.4h-5.5c0.5-0.5,0.7-1.1,0.7-1.8
					c0-1.4-0.9-2-2.7-2c-2.2,0-3.3,0.7-3.3,2.1c0,0.7,0.4,1.3,1.1,1.7c0.7,0.4,1.6,0.7,2.6,1c1,0.2,2,0.5,3,0.9
					c1,0.4,1.9,0.9,2.6,1.8s1.1,1.9,1.1,3.2c0,2.6-0.8,4.6-2.4,5.9c-1.6,1.3-4,1.9-7.3,1.9s-5.5-0.6-6.7-1.7
					c-0.9-0.9-1.3-2.1-1.3-3.6c0-0.6,0.1-1.2,0.2-1.9l0.1-0.5h5.6l-0.1,0.4C99.2,20.1,99.1,20.3,99.1,20.5z"/>
				<path class="st4" d="M119.4,20.5c0,1.4,1,2.2,3.1,2.2c2.1,0,3.1-0.6,3.1-1.9c0-0.7-0.4-1.3-1.1-1.7c-0.7-0.4-1.6-0.8-2.6-1.1
					c-1-0.3-2-0.6-3-1c-1-0.4-1.9-1-2.6-1.8c-0.7-0.8-1.1-1.8-1.1-3.1c0-5.2,3.4-7.8,10.1-7.8c2.5,0,4.3,0.5,5.6,1.4
					c1.3,0.9,1.9,2.2,1.9,3.9c0,0.6-0.1,1.2-0.2,1.7c-0.2,0.6-0.3,0.9-0.5,1.2l-0.2,0.4h-5.5c0.5-0.5,0.7-1.1,0.7-1.8
					c0-1.4-0.9-2-2.7-2c-2.2,0-3.3,0.7-3.3,2.1c0,0.7,0.4,1.3,1.1,1.7c0.7,0.4,1.6,0.7,2.6,1c1,0.2,2,0.5,3,0.9
					c1,0.4,1.9,0.9,2.6,1.8s1.1,1.9,1.1,3.2c0,2.6-0.8,4.6-2.4,5.9c-1.6,1.3-4,1.9-7.3,1.9s-5.5-0.6-6.7-1.7
					c-0.9-0.9-1.3-2.1-1.3-3.6c0-0.6,0.1-1.2,0.2-1.9l0.1-0.5h5.6l-0.1,0.4C119.4,20.1,119.4,20.3,119.4,20.5z"/>
			</g>
		</g>
	</g>
</g>
</svg>
