<svg id="Layer_2" data-name="Layer 2" xmlns="http://www.w3.org/2000/svg" viewBox="0 0 33.03 33.03"><title>github</title><path d="M0,0V32H11.78s0-.26,0-.68V28c-.8,0-1.56.13-2.32.09a3.82,3.82,0,0,1-3.64-2.46A4.68,4.68,0,0,0,3.9,23.31a1.79,1.79,0,0,1-.46-.41c-.17-.2-.14-.41.13-.47a2.49,2.49,0,0,1,.86,0,3.57,3.57,0,0,1,2.38,1.77,3.6,3.6,0,0,0,4.79,1.49.53.53,0,0,0,.27-.26,4.1,4.1,0,0,1,1-2.12c-.65-.12-1.26-.21-1.85-.35a7.43,7.43,0,0,1-4.39-2.53,7.76,7.76,0,0,1-1.53-3.95,7.42,7.42,0,0,1,1.52-6.17.46.46,0,0,0,.08-.39,6.44,6.44,0,0,1,.06-3.79c.2-.65.26-.69.93-.59l.12,0a10.14,10.14,0,0,1,3.65,1.57.81.81,0,0,0,.56.12,17,17,0,0,1,8.18,0,.8.8,0,0,0,.52-.1c.62-.32,1.22-.7,1.85-1a5.12,5.12,0,0,1,2.33-.61.56.56,0,0,1,.42.27,6.25,6.25,0,0,1,.2,4.05.82.82,0,0,0,.1.5,12.66,12.66,0,0,1,1.19,2.15,9,9,0,0,1-.55,6.83,6.65,6.65,0,0,1-4.77,3.54c-.7.18-1.42.29-2.17.44a4.79,4.79,0,0,1,1.13,3.62c0,1.36,0,2.73,0,4.09V32H32V0Z" transform="translate(0.5 0.5)" fill="none" stroke="#000" stroke-miterlimit="10"/></svg>