<?xml version="1.0" encoding="utf-8"?>
<!-- Generator: Adobe Illustrator 24.0.1, SVG Export Plug-In . SVG Version: 6.00 Build 0)  -->
<svg version="1.1" id="Layer_1" xmlns="http://www.w3.org/2000/svg" xmlns:xlink="http://www.w3.org/1999/xlink" x="0px" y="0px"
	 viewBox="0 0 205.5 272" style="enable-background:new 0 0 205.5 272;" xml:space="preserve">
<style type="text/css">
	.st0{fill:#73FFF8;stroke:#FFFFFF;stroke-width:5;stroke-miterlimit:10;}
	.st1{fill:none;}
	.st2{fill:#F2F2F2;}
	.st3{fill:#FFFFFF;}
	.st4{enable-background:new    ;}
</style>
<title>html5</title>
<g id="Layer_2_1_">
	<g id="Logos">
		<g id="HTML6">
			<path class="st0" d="M2.7,45.4l17.8,201.8l82.2,22.2l82.2-22.2l17.8-201.8L2.7,45.4L2.7,45.4z M162.8,111.1H67.2l2.3,25.2h91.1
				l-6.7,76.4l-51.2,13.9l-51.2-13.9l-3.4-38.9h24.8l1.8,19.8l28.1,7.4l28.1-7.4l1.8-19.8l1.1-12.5H47l-6.5-74.8H165L162.8,111.1z"
				/>
			<polygon class="st1" points="132.6,173.7 133.7,161.2 102.7,161.2 102.7,200.8 130.8,193.4 			"/>
			<polygon class="st2" points="113.7,223.6 113.7,197.9 102.7,200.8 74.6,193.4 72.9,173.7 48.1,173.7 51.5,212.6 102.7,226.5 			
				"/>
			<polygon class="st2" points="67.2,111.1 111.7,111.1 111.7,86.4 40.5,86.4 47,161.2 111.7,161.2 111.7,136.3 69.5,136.3 			"/>
			<polygon class="st3" points="133.7,162.2 132.6,173.7 130.8,192.4 102.7,199.8 102.7,227.5 153.9,213.6 160.6,135.3 102.7,135.3 
				102.7,162.2 			"/>
			<polygon class="st3" points="162.8,112.1 165,85.4 102.7,85.4 102.7,112.1 			"/>
			<g class="st4">
				<path class="st3" d="M72.2,4.2l-3.8,21.8h-5.5l1.4-7.9h-5.9L57,26.1h-5.5l3.8-21.8h5.5l-1.6,9.2h5.9l1.6-9.2H72.2z"/>
				<path class="st3" d="M94.2,9h-7.5l-3,17.1h-5.5l3-17.1h-7.5l0.8-4.7h20.4L94.2,9z"/>
				<path class="st3" d="M103.3,4.2l3.2,10.5l7-10.5h5.7l-3.8,21.8h-5.5l2.2-12.3l-4.7,7.3h-4l-2.1-7.3l-2.2,12.3h-5.5l3.8-21.8
					H103.3z"/>
				<path class="st3" d="M133.5,26.1h-13.8l3.8-21.8h5.5l-3,17.1h8.4L133.5,26.1z"/>
				<path class="st3" d="M141.8,20c0,0.5,0.2,1,0.6,1.3c0.4,0.3,1.1,0.5,2,0.5c0.9,0,1.7-0.3,2.3-0.9c0.6-0.6,1-1.3,1-2.2
					s-0.2-1.6-0.7-2.1c-0.5-0.5-1-0.8-1.7-0.8c-1.2,0-2.1,0.3-2.8,0.8l-0.3,0.3h-5.2l2.2-12.6h14.8L153.3,9h-9.7l-0.5,3
					c0.9-0.5,2.2-0.7,4-0.7c1.8,0,3.3,0.6,4.4,1.7s1.7,2.6,1.7,4.5c0,2.7-0.8,4.8-2.4,6.5c-1.6,1.7-4,2.5-7,2.5
					c-3.1,0-5.2-0.6-6.3-1.7c-0.8-0.8-1.3-2-1.3-3.5c0-0.5,0.1-1.1,0.2-1.7h5.5C141.8,19.8,141.8,19.9,141.8,20z"/>
			</g>
		</g>
	</g>
</g>
</svg>
