<svg xmlns="http://www.w3.org/2000/svg" viewBox="0 0 212.47 250.12"><title>illustrator</title><g id="Layer_2" data-name="Layer 2"><g id="Logos"><rect x="21.25" y="68.61" width="159.67" height="146.74" style="fill:#f2f2f2"/><path d="M98.67,146.09h-21c3.71-13.71,8.4-31.22,10.26-41.57h.17Z" style="fill:#73fff8;stroke:#fff;stroke-miterlimit:10;stroke-width:5px"/><path d="M2.5,45.81V247.62H210V45.81ZM51.87,186.52,77,98.59a29,29,0,0,0,.88-7.34c0-.62.27-.88.71-.88H97.16c.62,0,.89.17,1.07.88l28.12,95.45c.18.7,0,1.15-.7,1.15H111c-.7,0-1.15-.18-1.32-.8l-7.34-26.63H74.08l-7,26.54c-.18.71-.44.89-1.33.89h-13C51.87,187.85,51.7,187.58,51.87,186.52ZM139.54,117c0-.71.26-1.06,1.06-1.06h13.89c.7,0,1.06.26,1.06,1.06v69.79c0,.71-.18,1.06-1.06,1.06H140.78c-.89,0-1.15-.44-1.15-1.15V117Zm7.78-11.06c-5.13,0-8.84-3.18-8.84-9,0-5.66,4-9,9-9,5.4,0,9,3.62,9,9C156.52,102.75,152.72,105.93,147.32,105.93Z" style="fill:#73fff8;stroke:#fff;stroke-miterlimit:10;stroke-width:5px"/><text transform="translate(5.27 26.01)" style="font-size:30.243000030517578px;fill:#fff;font-family:FugazOne-Regular, Fugaz One">IL<tspan x="25.95" y="0" style="letter-spacing:-0.006974754481603921em">L</tspan><tspan x="41.95" y="0">USTR</tspan><tspan x="123.33" y="0" style="letter-spacing:-0.058026082423343735em">A</tspan><tspan x="140.96" y="0">TOR</tspan></text></g></g></svg>