<?xml version="1.0" encoding="utf-8"?>
<!-- Generator: Adobe Illustrator 24.0.1, SVG Export Plug-In . SVG Version: 6.00 Build 0)  -->
<svg version="1.1" id="Layer_1" xmlns="http://www.w3.org/2000/svg" xmlns:xlink="http://www.w3.org/1999/xlink" x="0px" y="0px"
	 viewBox="0 0 212.5 250.1" style="enable-background:new 0 0 212.5 250.1;" xml:space="preserve">
<style type="text/css">
	.st0{fill:#F2F2F2;}
	.st1{fill:#73FFF8;stroke:#FFFFFF;stroke-width:5;stroke-miterlimit:10;}
	.st2{enable-background:new    ;}
	.st3{fill:#FFFFFF;}
</style>
<title>illustrator</title>
<g id="Layer_2_1_">
	<g id="Logos">
		<rect x="21.3" y="68.6" class="st0" width="159.7" height="146.7"/>
		<path class="st1" d="M98.7,146.1h-21c3.7-13.7,8.4-31.2,10.3-41.6h0.2L98.7,146.1z"/>
		<path class="st1" d="M2.5,45.8v201.8H210V45.8H2.5z M51.9,186.5L77,98.6c0.6-2.4,0.9-4.9,0.9-7.3c0-0.6,0.3-0.9,0.7-0.9h18.6
			c0.6,0,0.9,0.2,1.1,0.9l28.1,95.4c0.2,0.7,0,1.1-0.7,1.1H111c-0.7,0-1.2-0.2-1.3-0.8l-7.3-26.6H74.1l-7,26.5
			c-0.2,0.7-0.4,0.9-1.3,0.9h-13C51.9,187.9,51.7,187.6,51.9,186.5z M139.5,117c0-0.7,0.3-1.1,1.1-1.1h13.9c0.7,0,1.1,0.3,1.1,1.1
			v69.8c0,0.7-0.2,1.1-1.1,1.1h-13.7c-0.9,0-1.1-0.4-1.1-1.1L139.5,117L139.5,117z M147.3,105.9c-5.1,0-8.8-3.2-8.8-9c0-5.7,4-9,9-9
			c5.4,0,9,3.6,9,9C156.5,102.8,152.7,105.9,147.3,105.9L147.3,105.9z"/>
		<g class="st2">
			<path class="st3" d="M15.1,4.2L11.3,26H5.8L9.7,4.2H15.1z"/>
			<path class="st3" d="M29.4,26H15.6l3.8-21.8h5.4l-3,17.1h8.3L29.4,26z"/>
		</g>
		<g class="st2">
			<path class="st3" d="M45.6,26H31.8l3.8-21.8h5.4l-3,17.1h8.3L45.6,26z"/>
		</g>
		<g class="st2">
			<path class="st3" d="M62.8,24.4c-1.6,1.3-3.9,2-6.8,2c-2.9,0-5-0.7-6.1-2c-0.8-0.9-1.2-2.2-1.2-3.8c0-0.7,0.1-1.5,0.2-2.4
				l2.4-13.9h5.4l-2.4,13.8c-0.1,0.5-0.1,1-0.1,1.6c0,1.4,0.8,2.1,2.5,2.1c1,0,1.8-0.3,2.4-0.8c0.6-0.5,1-1.5,1.3-2.9L63,4.2h5.4
				L66,18.2C65.5,21,64.4,23.1,62.8,24.4z"/>
			<path class="st3" d="M74.5,19.8c0,1.4,1,2.1,3,2.1c2,0,3-0.6,3-1.9c0-0.7-0.3-1.2-1-1.6c-0.7-0.4-1.5-0.8-2.5-1.1
				c-1-0.3-2-0.6-2.9-1c-1-0.4-1.8-1-2.5-1.8c-0.7-0.8-1-1.8-1-3c0-5.1,3.3-7.6,9.8-7.6c2.4,0,4.2,0.4,5.4,1.3s1.8,2.1,1.8,3.7
				c0,0.6-0.1,1.1-0.2,1.7s-0.3,0.9-0.5,1.1l-0.2,0.4h-5.4c0.4-0.5,0.7-1,0.7-1.8c0-1.3-0.9-2-2.6-2c-2.2,0-3.2,0.7-3.2,2.1
				c0,0.7,0.3,1.2,1,1.6c0.7,0.4,1.5,0.7,2.5,1c1,0.2,2,0.5,2.9,0.9c1,0.3,1.8,0.9,2.5,1.7c0.7,0.8,1,1.8,1,3.1
				c0,2.6-0.8,4.5-2.3,5.7s-3.9,1.9-7.1,1.9s-5.4-0.6-6.5-1.7c-0.9-0.8-1.3-2-1.3-3.5c0-0.6,0.1-1.2,0.2-1.8l0.1-0.5h5.4l-0.1,0.4
				C74.5,19.5,74.5,19.6,74.5,19.8z"/>
			<path class="st3" d="M109.9,9h-7.4l-3,17.1h-5.5l3-17.1h-7.5l0.8-4.7h20.4L109.9,9z"/>
			<path class="st3" d="M121.9,4.2c2.3,0,3.9,0.5,4.9,1.5c0.7,0.8,1.1,1.7,1.1,2.9c0,0.4,0,0.8-0.1,1.3l-0.4,2.4
				c-0.2,1.3-0.7,2.4-1.3,3.2c-0.6,0.8-1.3,1.4-2,1.7l2.8,8.8h-6.1l-2.5-8.1h-1.9l-1.2,8.1h-5.8l3.8-21.8H121.9z M120,9h-2.3
				l-0.8,5.3h2.1c1.1,0,1.8-0.3,2.3-0.8c0.5-0.5,0.7-1.2,0.7-2C122.1,9.8,121.4,9,120,9z"/>
		</g>
		<g class="st2">
			<path class="st3" d="M139.9,26l0.2-4.7h-5l-1.5,4.7h-5.8l7.8-21.8h10l0.1,21.8H139.9z M138.7,9.5l-2.4,7.7h4l0.3-7.7H138.7z"/>
		</g>
		<g class="st2">
			<path class="st3" d="M168.4,9h-7.4l-3,17.1h-5.5l3-17.1H148l0.8-4.7h20.4L168.4,9z"/>
			<path class="st3" d="M179.6,4c4.9,0,7.3,2,7.3,6c0,0.7-0.1,1.4-0.2,2.1l-1.1,6c-0.5,2.8-1.5,4.9-3.1,6.2s-3.9,2-6.8,2
				c-2.9,0-5-0.7-6.1-2c-0.8-0.9-1.2-2.2-1.2-3.8c0-0.7,0.1-1.5,0.2-2.4l1.1-6C170.6,6.7,174,4,179.6,4z M176.5,21.7
				c1,0,1.8-0.3,2.4-0.8c0.6-0.5,1-1.5,1.3-2.9l1-5.8c0.1-0.4,0.1-0.8,0.1-1.1c0-1.6-0.8-2.4-2.5-2.4c-2.1,0-3.3,1.2-3.7,3.5l-1,5.8
				c-0.1,0.5-0.1,1-0.1,1.6C174,21,174.8,21.7,176.5,21.7z"/>
			<path class="st3" d="M200.5,4.2c2.3,0,3.9,0.5,4.9,1.5c0.7,0.8,1.1,1.7,1.1,2.9c0,0.4,0,0.8-0.1,1.3l-0.4,2.4
				c-0.2,1.3-0.7,2.4-1.3,3.2c-0.6,0.8-1.3,1.4-2,1.7l2.8,8.8h-6.1l-2.5-8.1H195l-1.2,8.1h-5.8l3.8-21.8H200.5z M198.6,9h-2.3
				l-0.8,5.3h2.1c1.1,0,1.8-0.3,2.3-0.8c0.5-0.5,0.7-1.2,0.7-2C200.7,9.8,200,9,198.6,9z"/>
		</g>
	</g>
</g>
</svg>
