<?xml version="1.0" encoding="utf-8"?>
<!-- Generator: Adobe Illustrator 24.0.1, SVG Export Plug-In . SVG Version: 6.00 Build 0)  -->
<svg version="1.1" id="Layer_1" xmlns="http://www.w3.org/2000/svg" xmlns:xlink="http://www.w3.org/1999/xlink" x="0px" y="0px"
	 viewBox="0 0 206.4 272.4" style="enable-background:new 0 0 206.4 272.4;" xml:space="preserve">
<style type="text/css">
	.st0{fill:#73FFF8;stroke:#FFFFFF;stroke-width:5;stroke-miterlimit:10;}
	.st1{fill:#FFFFFF;stroke:#FFFFFF;stroke-width:3;stroke-linecap:round;stroke-linejoin:round;}
	.st2{fill:#F2F2F2;stroke:#FFFFFF;stroke-width:3;stroke-linecap:round;stroke-linejoin:round;}
	.st3{enable-background:new    ;}
	.st4{fill:#FFFFFF;}
</style>
<title>javascript</title>
<g id="Layer_2_1_">
	<g id="Logos">
		<g id="JS">
			<polygon class="st0" points="185.4,247.6 103.2,269.8 21,247.6 3.2,45.8 203.2,45.8 			"/>
			<polygon class="st1" points="129.8,111.5 128.5,137.2 161,137.2 154.4,213 107.1,226.5 107.1,200.3 135.8,193.8 139.4,160 
				107.1,162.1 107.1,86.8 165.5,86.8 163.4,110.9 			"/>
			<polygon class="st2" points="97.3,86.8 97.3,225.9 50.7,213 47.3,174.5 63.9,177.5 64.6,191.3 79.8,195.2 76.9,111.5 76,86.8 			
				"/>
			<g class="st3">
				<path class="st4" d="M17.9,26.4c-4.9,0-7.3-1.8-7.3-5.3c0-0.5,0.1-1.1,0.2-1.8l0.4-2.2h5.4l-0.2,1c-0.1,0.5-0.1,1-0.1,1.5
					s0.1,1,0.4,1.3c0.4,0.5,1.1,0.8,2,0.8s1.7-0.3,2.3-0.8s1-1.4,1.2-2.8l2.5-14h5.4l-2.5,14.4c-0.5,2.7-1.5,4.7-3,5.9
					C23,25.8,20.8,26.4,17.9,26.4z"/>
			</g>
			<g class="st3">
				<path class="st4" d="M41.1,26l0.2-4.7h-5.1L34.8,26H29l7.8-21.8h10L46.9,26H41.1z M39.9,9.5l-2.4,7.7h4l0.3-7.7H39.9z"/>
				<path class="st4" d="M57.4,20.7l5.7-16.5H69L60.8,26h-9.7L50.9,4.2h5.9l-0.1,16.5H57.4z"/>
			</g>
			<g class="st3">
				<path class="st4" d="M78.8,26l0.2-4.7h-5.1L72.4,26h-5.8l7.8-21.8h10L84.5,26H78.8z M77.5,9.5l-2.4,7.7h4l0.3-7.7H77.5z"/>
			</g>
			<g class="st3">
				<path class="st4" d="M93,19.8c0,1.4,1,2.1,3,2.1c2,0,3-0.6,3-1.9c0-0.7-0.3-1.2-1-1.6c-0.7-0.4-1.5-0.8-2.5-1.1
					c-1-0.3-2-0.6-2.9-1c-1-0.4-1.8-1-2.5-1.8c-0.7-0.8-1-1.8-1-3C89,6.6,92.3,4,98.8,4c2.4,0,4.2,0.4,5.4,1.3
					c1.2,0.9,1.8,2.1,1.8,3.7c0,0.6-0.1,1.1-0.2,1.7s-0.3,0.9-0.5,1.1l-0.2,0.4h-5.4c0.4-0.5,0.7-1,0.7-1.8c0-1.3-0.9-2-2.6-2
					c-2.2,0-3.2,0.7-3.2,2.1c0,0.7,0.3,1.2,1,1.6s1.5,0.7,2.5,1s2,0.5,2.9,0.9c1,0.3,1.8,0.9,2.5,1.7c0.7,0.8,1,1.8,1,3.1
					c0,2.6-0.8,4.5-2.3,5.7s-3.9,1.9-7.1,1.9s-5.4-0.6-6.5-1.7c-0.9-0.8-1.3-2-1.3-3.5c0-0.6,0.1-1.2,0.2-1.8l0.1-0.5h5.4L93,19.3
					C93,19.5,93,19.6,93,19.8z"/>
				<path class="st4" d="M114.4,26.4c-2.9,0-4.9-0.6-6-1.9c-0.8-0.9-1.1-2.1-1.1-3.7c0-0.7,0.1-1.4,0.2-2.2l1.2-7
					c0.9-5.1,4.2-7.7,9.8-7.7c2.3,0,4.1,0.5,5.3,1.5s1.8,2.4,1.8,4.1c0,0.8-0.1,1.6-0.3,2.4c-0.2,0.8-0.5,1.4-0.7,1.8l-0.3,0.6H119
					c0.7-0.8,1-1.9,1-3.3c0-0.7-0.2-1.3-0.6-1.8c-0.4-0.4-0.9-0.6-1.7-0.6c-2,0-3.2,1.1-3.6,3.4l-1.1,6.1c-0.1,0.5-0.2,1-0.2,1.5
					c0,1.3,0.8,2,2.4,2c1.9,0,3.1-1.1,3.4-3.2h5.4l-0.2,0.9C123.2,24.1,120,26.4,114.4,26.4z"/>
				<path class="st4" d="M139,4.2c2.3,0,3.9,0.5,4.9,1.5c0.7,0.8,1.1,1.7,1.1,2.9c0,0.4,0,0.8-0.1,1.3l-0.4,2.4
					c-0.2,1.3-0.7,2.4-1.3,3.2c-0.6,0.8-1.3,1.4-2,1.7l2.8,8.8h-6.1l-2.5-8.1h-1.9l-1.2,8.1h-5.8l3.8-21.8H139z M137.1,9h-2.3
					l-0.8,5.3h2.1c1.1,0,1.8-0.3,2.3-0.8c0.5-0.5,0.7-1.2,0.7-2C139.1,9.8,138.4,9,137.1,9z"/>
				<path class="st4" d="M155.5,4.2L151.7,26h-5.5L150,4.2H155.5z"/>
				<path class="st4" d="M166.1,19.4h-3.6l-1.2,6.6h-5.4l3.8-21.8h9.2c2.3,0,3.9,0.5,4.9,1.6c0.7,0.8,1.1,1.8,1.1,3.1
					c0,0.4,0,0.9-0.1,1.3l-0.6,3.4c-0.3,1.7-1.2,3-2.7,4.1C170.1,18.8,168.3,19.4,166.1,19.4z M167.1,9h-2.7l-1,5.7h2.7
					c1.7,0,2.6-0.7,2.9-2.2l0.2-1.2c0-0.2,0.1-0.4,0.1-0.7s-0.2-0.6-0.5-1C168.4,9.1,167.9,9,167.1,9z"/>
				<path class="st4" d="M196.8,9h-7.4l-3,17.1h-5.5l3-17.1h-7.5l0.8-4.7h20.4L196.8,9z"/>
			</g>
		</g>
	</g>
</g>
</svg>
