<svg xmlns="http://www.w3.org/2000/svg" viewBox="0 0 206.36 272.37"><title>javascript</title><g id="Layer_2" data-name="Layer 2"><g id="Logos"><g id="JS"><polygon points="185.4 247.59 103.18 269.78 20.97 247.59 3.18 45.78 203.18 45.78 185.4 247.59" style="fill:#73fff8;stroke:#fff;stroke-miterlimit:10;stroke-width:5px"/><polygon points="129.78 111.48 128.46 137.23 161.03 137.23 154.39 213.04 107.09 226.47 107.09 200.34 135.83 193.84 139.36 159.99 107.09 162.06 107.09 86.76 165.46 86.76 163.35 110.89 129.78 111.48" style="fill:#fff;stroke:#fff;stroke-linecap:round;stroke-linejoin:round;stroke-width:3px"/><polygon points="97.28 86.76 97.28 225.95 50.66 213.04 47.28 174.48 63.92 177.54 64.61 191.25 79.85 195.19 76.87 111.48 75.98 86.76 97.28 86.76" style="fill:#f2f2f2;stroke:#fff;stroke-linecap:round;stroke-linejoin:round;stroke-width:3px"/><text transform="translate(10.67 26.01)" style="font-size:30.243000030517578px;fill:#fff;font-family:FugazOne-Regular, Fugaz One">J<tspan x="19.11" y="0" style="letter-spacing:-0.021989850935056808em">AV</tspan><tspan x="56.77" y="0" style="letter-spacing:-0.006974754481603921em">A</tspan><tspan x="75.94" y="0">SCRIPT</tspan></text></g></g></g></svg>