<svg xmlns="http://www.w3.org/2000/svg" viewBox="0 0 206.8 250.11"><title>jquery</title><g id="Layer_2" data-name="Layer 2"><g id="Logos"><rect x="41.03" y="64.61" width="133.29" height="146.74" style="fill:#f2f2f2"/><path d="M2.5,45.81v201.8H204.3V45.81ZM111.36,95.9l3.24-4.46c-6,10.81-.28,24.13,8.89,31.09a31,31,0,0,0,5.17,3.15,28.15,28.15,0,0,0,3,1.22c.78.28,1.67.57,2.48.77,10.25,2.49,18.61.77,23.58-6.39-1.51,2.18-7.19,17-28.12,12.92l-1.35-.36-.42-.13-.94-.36a30.17,30.17,0,0,1-17.23-16.13A22.14,22.14,0,0,1,111.36,95.9ZM94.6,200.63a19.72,19.72,0,0,1-2.26-.64l-.53-.16c-.74-.23-1.46-.47-2.19-.72l-.25-.08-2-.73-.5-.2c-.7-.28-1.39-.57-2.08-.87l-.38-.16-1.78-.83-.47-.22-.26-.13-1.13-.58-.87-.45L78.35,194l-.58-.36c-.7-.42-1.4-.84-2.09-1.28L75.1,192c-.46-.29-.9-.58-1.35-.89l-.64-.45-1.38-1-.66-.5-1.23-1-.61-.49-1.78-1.51c-.55-.48-1.09-1-1.62-1.48l-.48-.46-1.19-1.16-.47-.48c-.51-.52-1-1-1.49-1.57l-.08-.09c-.5-.55-1-1.1-1.46-1.67l-.41-.48-1-1.29-.43-.54c-.39-.5-.77-1-1.14-1.51l-.24-.33c-.43-.59-.84-1.19-1.24-1.79l-.37-.57-.86-1.34-.42-.7-.75-1.27c-.13-.24-.27-.47-.4-.72l-.23-.4-.35-.7c-.19-.37-.39-.73-.57-1.11-7.76-15.54-9-34.53,1.13-49.12l7.93-10c-9,17.28-4.92,38.36,6.33,53.6l1.24,1.65.36.49,1.07,1.33.36.47c.49.57,1,1.14,1.49,1.7l.07.08c.45.52.94,1,1.44,1.55l.46.47,1.2,1.18.46.45,1.67,1.52.18.14,1.58,1.34.57.46,1.27,1,.63.48,1.41,1a5,5,0,0,0,.48.34l1.49,1,.57.37q1,.66,2.1,1.29l.54.3c.54.31,1.07.62,1.62.91l.89.46q.68.39,1.35.72l.5.24,1.74.81.41.18c.68.3,1.37.59,2.06.86l.54.22,1.91.7.3.11c.71.25,1.44.48,2.16.71l.56.16c.74.23,1.48.46,2.25.64,20.17,4.58,41.43.46,53.41-15.12C157.54,172.19,143,209.45,94.6,200.63Zm19.47-35.38a17.76,17.76,0,0,1-2.14-.62l-.67-.21-1.48-.52-.69-.25c-.54-.21-1.08-.42-1.61-.65l-.43-.18c-.66-.29-1.32-.59-2-.91,0,0-.09,0-.14-.07l-.94-.49c-.12-.08-.32-.16-.48-.25l-1.35-.71-.22-.13c-.51-.3-1-.61-1.52-.93L100,159c-.32-.2-.64-.4-.94-.62l-.06,0c-.7-.48-1.39-1-2.06-1.5l-.45-.35c-.67-.57-1.33-1.07-2-1.64l-.07-.06c-.57-.51-1.14-1-1.68-1.57l-.43-.43c-.57-.56-1.12-1.12-1.65-1.71a25.69,25.69,0,0,1-3.78-4.71A46.66,46.66,0,0,1,83.64,141c-5.73-11.14-6.12-25.31,1.22-35.88l6-8.53C85.93,104.81,85.32,115,88.14,124a45.53,45.53,0,0,0,15.48,22.07l.47.36q1,.78,2,1.5l1,.65c.15.1.3.21.46.3.5.33,1,.64,1.52.94l.3.17c.41.24.83.47,1.25.7l.58.3,1,.5c.65.32,1.31.63,2,.92l.44.18,1.61.65.72.25,1.5.51c.22.08.43.15.65.21.71.23,1.43.43,2.15.62,16.29,4.23,31.56-1.17,39.46-12.53C160.73,142.32,151.45,171.44,114.07,165.25Z" style="fill:#73fff8;stroke:#fff;stroke-miterlimit:10;stroke-width:5px"/><text transform="translate(50.34 26.01)" style="font-size:30.243000030517578px;fill:#fff;font-family:FugazOne-Regular, Fugaz One">jQUE<tspan x="67.89" y="0" style="letter-spacing:-0.0360039409582795em">R</tspan><tspan x="86.64" y="0">Y</tspan></text></g></g></svg>