<?xml version="1.0" encoding="utf-8"?>
<!-- Generator: Adobe Illustrator 24.0.1, SVG Export Plug-In . SVG Version: 6.00 Build 0)  -->
<svg version="1.1" id="Layer_1" xmlns="http://www.w3.org/2000/svg" xmlns:xlink="http://www.w3.org/1999/xlink" x="0px" y="0px"
	 viewBox="0 0 206.8 250.1" style="enable-background:new 0 0 206.8 250.1;" xml:space="preserve">
<style type="text/css">
	.st0{fill:#F2F2F2;}
	.st1{fill:#73FFF8;stroke:#FFFFFF;stroke-width:5;stroke-miterlimit:10;}
	.st2{enable-background:new    ;}
	.st3{fill:#FFFFFF;}
</style>
<title>jquery</title>
<g id="Layer_2_1_">
	<g id="Logos">
		<rect x="41" y="64.6" class="st0" width="133.3" height="146.7"/>
		<path class="st1" d="M2.5,45.8v201.8h201.8V45.8H2.5z M111.4,95.9l3.2-4.5c-6,10.8-0.3,24.1,8.9,31.1c1.6,1.2,3.3,2.3,5.2,3.2
			c1,0.5,2,0.9,3,1.2c0.8,0.3,1.7,0.6,2.5,0.8c10.3,2.5,18.6,0.8,23.6-6.4c-1.5,2.2-7.2,17-28.1,12.9l-1.4-0.4l-0.4-0.1l-0.9-0.4
			c-7.7-2.8-13.9-8.6-17.2-16.1C106.5,110.3,107.2,102.2,111.4,95.9z M94.6,200.6c-0.8-0.2-1.5-0.4-2.3-0.6l-0.5-0.2
			c-0.7-0.2-1.5-0.5-2.2-0.7l-0.3-0.1l-2-0.7l-0.5-0.2c-0.7-0.3-1.4-0.6-2.1-0.9l-0.4-0.2l-1.8-0.8l-0.5-0.2l-0.3-0.1l-1.1-0.6
			l-0.9-0.4l-1.5-0.9l-0.6-0.4c-0.7-0.4-1.4-0.8-2.1-1.3l-0.6-0.4c-0.5-0.3-0.9-0.6-1.3-0.9l-0.6-0.4l-1.4-1l-0.7-0.5l-1.2-1
			l-0.6-0.5l-1.8-1.5c-0.6-0.5-1.1-1-1.6-1.5l-0.5-0.5l-1.2-1.2l-0.5-0.5c-0.5-0.5-1-1-1.5-1.6l-0.1-0.1c-0.5-0.6-1-1.1-1.5-1.7
			l-0.4-0.5l-1-1.3l-0.4-0.5c-0.4-0.5-0.8-1-1.1-1.5l-0.2-0.3c-0.4-0.6-0.8-1.2-1.2-1.8l-0.4-0.6l-0.9-1.3l-0.4-0.7l-0.8-1.3
			c-0.1-0.2-0.3-0.5-0.4-0.7l-0.2-0.4l-0.3-0.7c-0.2-0.4-0.4-0.7-0.6-1.1c-7.8-15.5-9-34.5,1.1-49.1l7.9-10
			c-9,17.3-4.9,38.4,6.3,53.6l1.2,1.6l0.4,0.5l1.1,1.3l0.4,0.5c0.5,0.6,1,1.1,1.5,1.7l0.1,0.1c0.4,0.5,0.9,1,1.4,1.6l0.5,0.5
			l1.2,1.2l0.5,0.4l1.7,1.5l0.2,0.1l1.6,1.3l0.6,0.5l1.3,1l0.6,0.5l1.4,1c0.2,0.1,0.3,0.2,0.5,0.3l1.5,1l0.6,0.4
			c0.7,0.4,1.4,0.9,2.1,1.3l0.5,0.3c0.5,0.3,1.1,0.6,1.6,0.9l0.9,0.5c0.5,0.3,0.9,0.5,1.3,0.7l0.5,0.2l1.7,0.8l0.4,0.2
			c0.7,0.3,1.4,0.6,2.1,0.9l0.5,0.2l1.9,0.7l0.3,0.1c0.7,0.3,1.4,0.5,2.2,0.7l0.6,0.2c0.7,0.2,1.5,0.5,2.3,0.6
			c20.2,4.6,41.4,0.5,53.4-15.1C157.5,172.2,143,209.4,94.6,200.6z M114.1,165.3c-0.7-0.2-1.4-0.4-2.1-0.6l-0.7-0.2l-1.5-0.5
			l-0.7-0.3c-0.5-0.2-1.1-0.4-1.6-0.6l-0.4-0.2c-0.7-0.3-1.3-0.6-2-0.9c0,0-0.1,0-0.1-0.1l-0.9-0.5c-0.1-0.1-0.3-0.2-0.5-0.3
			l-1.3-0.7l-0.2-0.1c-0.5-0.3-1-0.6-1.5-0.9L100,159c-0.3-0.2-0.6-0.4-0.9-0.6H99c-0.7-0.5-1.4-1-2.1-1.5l-0.4-0.4
			c-0.7-0.6-1.3-1.1-2-1.6l-0.1-0.1c-0.6-0.5-1.1-1-1.7-1.6l-0.4-0.4c-0.6-0.6-1.1-1.1-1.7-1.7c-1.4-1.4-2.7-3-3.8-4.7
			c-1.2-1.7-2.3-3.5-3.2-5.4c-5.7-11.1-6.1-25.3,1.2-35.9l6-8.5c-4.9,8.2-5.5,18.4-2.7,27.4c2.8,8.8,8.2,16.4,15.5,22.1l0.5,0.4
			c0.7,0.5,1.3,1,2,1.5l1,0.6c0.2,0.1,0.3,0.2,0.5,0.3c0.5,0.3,1,0.6,1.5,0.9l0.3,0.2c0.4,0.2,0.8,0.5,1.3,0.7l0.6,0.3l1,0.5
			c0.7,0.3,1.3,0.6,2,0.9l0.4,0.2l1.6,0.6l0.7,0.3l1.5,0.5c0.2,0.1,0.4,0.1,0.7,0.2c0.7,0.2,1.4,0.4,2.2,0.6
			c16.3,4.2,31.6-1.2,39.5-12.5C160.7,142.3,151.4,171.4,114.1,165.3z"/>
		<g class="st2">
			<path class="st3" d="M49.3,34.7c-0.5,0-1.1-0.1-1.5-0.3c-0.5-0.2-0.8-0.4-1-0.6l-0.3-0.3l1.1-3.4c0.2,0.2,0.6,0.3,1.1,0.3
				c0.7,0,1.1-0.4,1.3-1.1l3.1-17.8h5.1L55,29.9c-0.3,1.5-0.8,2.6-1.7,3.5C52.5,34.3,51.1,34.7,49.3,34.7z M53.7,6.5
				c0-1.3,0.3-2.2,0.9-2.8c0.6-0.6,1.5-0.9,2.7-0.9c1.7,0,2.5,0.7,2.5,2.2c0,1.3-0.3,2.2-0.9,2.8c-0.6,0.6-1.5,0.9-2.7,0.9
				C54.5,8.7,53.7,8,53.7,6.5z"/>
			<path class="st3" d="M70.9,4c4.9,0,7.3,1.9,7.3,5.7c0,0.6-0.1,1.3-0.2,2l-1.2,7c-0.4,2.3-1.2,4.1-2.5,5.4c-1.3,1.3-3,2-5.3,2.3
				c0.2,0.7,0.8,1.3,1.6,1.7c0.9,0.4,2,0.7,3.3,0.7L73.8,33c-1.5,0-2.9-0.2-4-0.5c-1.2-0.3-2.1-0.8-2.7-1.3
				c-0.6-0.5-1.2-1.1-1.6-1.7c-0.6-1-0.9-2.1-1-3.2c-3.3-0.5-5-2.3-5-5.5c0-0.7,0.1-1.4,0.2-2.1l1.2-7C61.9,6.6,65.2,4,70.9,4z
				 M67.7,21.7c1,0,1.8-0.3,2.4-0.8s1-1.4,1.3-2.8l1.1-6.1c0.1-0.4,0.1-0.7,0.1-1c0-1.6-0.8-2.4-2.5-2.4c-2.1,0-3.3,1.2-3.7,3.4
				l-1.1,6.1c-0.1,0.5-0.1,1-0.1,1.5C65.2,21.1,66,21.7,67.7,21.7z"/>
			<path class="st3" d="M94.3,24.4c-1.6,1.3-3.9,2-6.8,2c-2.9,0-5-0.7-6.1-2c-0.8-0.9-1.2-2.2-1.2-3.8c0-0.7,0.1-1.5,0.2-2.4
				l2.5-13.9h5.4l-2.4,13.8c-0.1,0.5-0.1,1-0.1,1.6c0,1.4,0.8,2.1,2.5,2.1c1,0,1.8-0.3,2.4-0.8c0.6-0.5,1-1.5,1.3-2.9l2.5-13.8h5.4
				l-2.4,13.9C96.9,21,95.9,23.1,94.3,24.4z"/>
			<path class="st3" d="M115.3,26h-15.2L104,4.2h15.2L118.3,9h-9.7l-0.7,4.1h8l-0.8,4.7h-8l-0.6,3.5h9.7L115.3,26z"/>
		</g>
		<g class="st2">
			<path class="st3" d="M131.4,4.2c2.3,0,3.9,0.5,4.9,1.5c0.7,0.8,1.1,1.7,1.1,2.9c0,0.4,0,0.8-0.1,1.3l-0.4,2.4
				c-0.2,1.3-0.7,2.4-1.3,3.2c-0.6,0.8-1.3,1.4-2,1.7l2.8,8.8h-6.1l-2.5-8.1h-1.9l-1.2,8.1h-5.8l3.8-21.8H131.4z M129.5,9h-2.3
				l-0.8,5.3h2.1c1.1,0,1.8-0.3,2.3-0.8c0.5-0.5,0.7-1.2,0.7-2C131.6,9.8,130.9,9,129.5,9z"/>
		</g>
		<g class="st2">
			<path class="st3" d="M148.1,11.9l5.1-7.7h5.4l-9.3,13.4l-1.5,8.4h-5.5l1.5-8.4l-4.6-13.4h5.8l2.4,7.7H148.1z"/>
		</g>
	</g>
</g>
</svg>
