<?xml version="1.0" encoding="utf-8"?>
<!-- Generator: Adobe Illustrator 24.0.1, SVG Export Plug-In . SVG Version: 6.00 Build 0)  -->
<svg version="1.1" id="Layer_1" xmlns="http://www.w3.org/2000/svg" xmlns:xlink="http://www.w3.org/1999/xlink" x="0px" y="0px"
	 viewBox="0 0 212.5 250.1" style="enable-background:new 0 0 212.5 250.1;" xml:space="preserve">
<style type="text/css">
	.st0{fill:#F2F2F2;}
	.st1{fill:#73FFF8;stroke:#FFFFFF;stroke-width:5;stroke-miterlimit:10;}
	.st2{enable-background:new    ;}
	.st3{fill:#FFFFFF;}
</style>
<title>photoshop</title>
<g id="Layer_2_1_">
	<g id="Logos">
		<rect x="21.3" y="68.6" class="st0" width="159.7" height="146.7"/>
		<path class="st1" d="M73.6,101.5c-3.8,0-7.3,0.2-9.1,0.3v36.4c2.2,0.2,3.8,0.2,7.6,0.2c11,0,21.4-3.9,21.4-18.9
			C93.6,107.5,86.2,101.5,73.6,101.5z M73.6,101.5c-3.8,0-7.3,0.2-9.1,0.3v36.4c2.2,0.2,3.8,0.2,7.6,0.2c11,0,21.4-3.9,21.4-18.9
			C93.6,107.5,86.2,101.5,73.6,101.5z M2.5,45.8v201.8H210V45.8H2.5z M71.8,153.3c-3.6,0-4.8-0.2-7.3-0.2v36.2
			c0,0.8-0.3,1.1-1.1,1.1H48.9c-0.8,0-1.1-0.3-1.1-1.1V88.1c0-0.7,1.3-1.1,2.1-1.1c6-0.3,15-0.4,24.3-0.4
			c26.1,0,36.3,14.3,36.3,32.6C110.5,143,93.1,153.3,71.8,153.3z M139.7,192.1c-8.2,0-15.3-1.7-19.3-4c-0.7-0.3-0.8-0.8-0.8-1.5v-14
			c0-1,0.5-1.2,1.1-0.8c5.7,3.6,12.3,5.6,19,5.6c7.4,0,10.6-3.1,10.6-7.4c0-3.4-2.2-6.4-11.7-11.3c-13.4-6.4-19-12.9-19-23.8
			c0-12.2,9.5-22.3,26-22.3c8.1,0,13.8,1.2,16.9,2.6c0.7,0.4,1.1,1.1,1,1.9v12.9c0,0.8-0.5,1.2-1.4,0.9c-4.2-2.6-10.3-4.2-16.4-4.2
			c-7.4,0-10,3.8-10,6.9c0,3.4,1.7,5.8,11.7,10.9c14.8,7.2,19.4,14.1,19.4,24.1C166.8,184,155.3,192.1,139.7,192.1z M73.6,101.5
			c-3.8,0-7.3,0.2-9.1,0.3v36.4c2.2,0.2,3.8,0.2,7.6,0.2c11,0,21.4-3.9,21.4-18.9C93.6,107.5,86.2,101.5,73.6,101.5z M73.6,101.5
			c-3.8,0-7.3,0.2-9.1,0.3v36.4c2.2,0.2,3.8,0.2,7.6,0.2c11,0,21.4-3.9,21.4-18.9C93.6,107.5,86.2,101.5,73.6,101.5z M73.6,101.5
			c-3.8,0-7.3,0.2-9.1,0.3v36.4c2.2,0.2,3.8,0.2,7.6,0.2c11,0,21.4-3.9,21.4-18.9C93.6,107.5,86.2,101.5,73.6,101.5z"/>
		<g class="st2">
			<path class="st3" d="M26.3,19.4h-3.6L21.5,26h-5.4l3.8-21.8h9.2c2.3,0,3.9,0.5,4.9,1.6c0.7,0.8,1.1,1.8,1.1,3.1
				c0,0.4,0,0.9-0.1,1.3l-0.6,3.4c-0.3,1.7-1.2,3-2.7,4.1C30.2,18.8,28.4,19.4,26.3,19.4z M27.2,9h-2.7l-1,5.7h2.7
				c1.7,0,2.6-0.7,2.9-2.2l0.2-1.2c0-0.2,0.1-0.4,0.1-0.7s-0.2-0.6-0.5-1C28.6,9.1,28,9,27.2,9z"/>
			<path class="st3" d="M56,4.2L52.2,26h-5.5l1.4-7.9h-5.9L40.8,26h-5.5l3.8-21.8h5.4L43,13.4h5.9l1.6-9.2H56z"/>
		</g>
		<g class="st2">
			<path class="st3" d="M68.2,4c4.9,0,7.3,2,7.3,6c0,0.7-0.1,1.4-0.2,2.1l-1.1,6c-0.5,2.8-1.5,4.9-3.1,6.2c-1.6,1.4-3.9,2-6.8,2
				c-2.9,0-5-0.7-6.1-2c-0.8-0.9-1.2-2.2-1.2-3.8c0-0.7,0.1-1.5,0.2-2.4l1.1-6C59.2,6.7,62.5,4,68.2,4z M65.1,21.7
				c1,0,1.8-0.3,2.4-0.8c0.6-0.5,1-1.5,1.3-2.9l1-5.8c0.1-0.4,0.1-0.8,0.1-1.1c0-1.6-0.8-2.4-2.5-2.4c-2.1,0-3.3,1.2-3.7,3.5l-1,5.8
				c-0.1,0.5-0.1,1-0.1,1.6C62.5,21,63.4,21.7,65.1,21.7z"/>
		</g>
		<g class="st2">
			<path class="st3" d="M97.9,9h-7.4l-3,17.1H82L85,9h-7.5l0.8-4.7h20.4L97.9,9z"/>
			<path class="st3" d="M109.2,4c4.9,0,7.3,2,7.3,6c0,0.7-0.1,1.4-0.2,2.1l-1.1,6c-0.5,2.8-1.5,4.9-3.1,6.2s-3.9,2-6.8,2
				c-2.9,0-5-0.7-6.1-2c-0.8-0.9-1.2-2.2-1.2-3.8c0-0.7,0.1-1.5,0.2-2.4l1.1-6C100.2,6.7,103.5,4,109.2,4z M106.1,21.7
				c1,0,1.8-0.3,2.4-0.8c0.6-0.5,1-1.5,1.3-2.9l1-5.8c0.1-0.4,0.1-0.8,0.1-1.1c0-1.6-0.8-2.4-2.5-2.4c-2.1,0-3.3,1.2-3.7,3.5l-1,5.8
				c-0.1,0.5-0.1,1-0.1,1.6C103.5,21,104.4,21.7,106.1,21.7z"/>
			<path class="st3" d="M123.3,19.8c0,1.4,1,2.1,3,2.1c2,0,3-0.6,3-1.9c0-0.7-0.3-1.2-1-1.6c-0.7-0.4-1.5-0.8-2.5-1.1
				c-1-0.3-2-0.6-2.9-1c-1-0.4-1.8-1-2.5-1.8c-0.7-0.8-1-1.8-1-3c0-5.1,3.3-7.6,9.8-7.6c2.4,0,4.2,0.4,5.4,1.3s1.8,2.1,1.8,3.7
				c0,0.6-0.1,1.1-0.2,1.7s-0.3,0.9-0.5,1.1l-0.2,0.4H130c0.4-0.5,0.7-1,0.7-1.8c0-1.3-0.9-2-2.6-2c-2.2,0-3.2,0.7-3.2,2.1
				c0,0.7,0.3,1.2,1,1.6c0.7,0.4,1.5,0.7,2.5,1c1,0.2,2,0.5,2.9,0.9c1,0.3,1.8,0.9,2.5,1.7c0.7,0.8,1,1.8,1,3.1
				c0,2.6-0.8,4.5-2.3,5.7s-3.9,1.9-7.1,1.9s-5.4-0.6-6.5-1.7c-0.9-0.8-1.3-2-1.3-3.5c0-0.6,0.1-1.2,0.2-1.8l0.1-0.5h5.4l-0.1,0.4
				C123.3,19.5,123.3,19.6,123.3,19.8z"/>
			<path class="st3" d="M157.7,4.2L153.9,26h-5.5l1.4-7.9h-5.9l-1.4,7.9h-5.5l3.8-21.8h5.4l-1.6,9.2h5.9l1.6-9.2H157.7z"/>
			<path class="st3" d="M169.9,4c4.9,0,7.3,2,7.3,6c0,0.7-0.1,1.4-0.2,2.1l-1.1,6c-0.5,2.8-1.5,4.9-3.1,6.2s-3.9,2-6.8,2
				c-2.9,0-5-0.7-6.1-2c-0.8-0.9-1.2-2.2-1.2-3.8c0-0.7,0.1-1.5,0.2-2.4l1.1-6C161,6.7,164.3,4,169.9,4z M166.8,21.7
				c1,0,1.8-0.3,2.4-0.8c0.6-0.5,1-1.5,1.3-2.9l1-5.8c0.1-0.4,0.1-0.8,0.1-1.1c0-1.6-0.8-2.4-2.5-2.4c-2.1,0-3.3,1.2-3.7,3.5l-1,5.8
				c-0.1,0.5-0.1,1-0.1,1.6C164.3,21,165.1,21.7,166.8,21.7z"/>
			<path class="st3" d="M188.5,19.4h-3.6l-1.2,6.6h-5.4l3.8-21.8h9.2c2.3,0,3.9,0.5,4.9,1.6c0.7,0.8,1.1,1.8,1.1,3.1
				c0,0.4,0,0.9-0.1,1.3l-0.6,3.4c-0.3,1.7-1.2,3-2.7,4.1C192.4,18.8,190.6,19.4,188.5,19.4z M189.4,9h-2.7l-1,5.7h2.7
				c1.7,0,2.6-0.7,2.9-2.2l0.2-1.2c0-0.2,0.1-0.4,0.1-0.7s-0.2-0.6-0.5-1C190.8,9.1,190.2,9,189.4,9z"/>
		</g>
	</g>
</g>
</svg>
