<svg xmlns="http://www.w3.org/2000/svg" viewBox="0 0 212.47 250.12"><title>photoshop</title><g id="Layer_2" data-name="Layer 2"><g id="Logos"><rect x="21.25" y="68.61" width="159.67" height="146.74" style="fill:#f2f2f2"/><path d="M73.6,101.46c-3.76,0-7.34.18-9.07.27l0,36.41c2.18.18,3.85.18,7.62.18,11,0,21.4-3.85,21.4-18.86C93.6,107.49,86.17,101.46,73.6,101.46Zm0,0c-3.76,0-7.34.18-9.07.27l0,36.41c2.18.18,3.85.18,7.62.18,11,0,21.4-3.85,21.4-18.86C93.6,107.49,86.17,101.46,73.6,101.46ZM2.5,45.81V247.62H210V45.81ZM71.79,153.33c-3.58,0-4.81-.18-7.35-.18v36.19c0,.77-.27,1.14-1.13,1.14H48.89c-.77,0-1.14-.28-1.14-1.14V88.08c0-.68,1.32-1.14,2.09-1.14,6-.27,15-.45,24.31-.45,26.12,0,36.32,14.33,36.32,32.61C110.47,143,93.1,153.33,71.79,153.33Zm67.93,38.78c-8.2,0-15.28-1.68-19.32-4-.68-.27-.77-.77-.77-1.49V172.65c0-1,.46-1.22,1.14-.77a35.1,35.1,0,0,0,19,5.58c7.44,0,10.57-3.13,10.57-7.35,0-3.4-2.18-6.39-11.7-11.33-13.38-6.4-19-12.88-19-23.77,0-12.15,9.53-22.26,26-22.26,8.12,0,13.79,1.22,16.87,2.63a2.05,2.05,0,0,1,1,1.9v12.93c0,.77-.46,1.22-1.41.95-4.17-2.63-10.29-4.22-16.42-4.22-7.43,0-10,3.77-10,6.89,0,3.41,1.68,5.76,11.7,10.93,14.78,7.17,19.41,14.06,19.41,24.13C166.8,184,155.28,192.11,139.72,192.11ZM73.6,101.46c-3.76,0-7.34.18-9.07.27l0,36.41c2.18.18,3.85.18,7.62.18,11,0,21.4-3.85,21.4-18.86C93.6,107.49,86.17,101.46,73.6,101.46Zm0,0c-3.76,0-7.34.18-9.07.27l0,36.41c2.18.18,3.85.18,7.62.18,11,0,21.4-3.85,21.4-18.86C93.6,107.49,86.17,101.46,73.6,101.46Zm0,0c-3.76,0-7.34.18-9.07.27l0,36.41c2.18.18,3.85.18,7.62.18,11,0,21.4-3.85,21.4-18.86C93.6,107.49,86.17,101.46,73.6,101.46Z" style="fill:#73fff8;stroke:#fff;stroke-miterlimit:10;stroke-width:5px"/><text transform="translate(15.49 26.01)" style="font-size:30.243000030517578px;fill:#fff;font-family:FugazOne-Regular, Fugaz One">PH<tspan x="40.37" y="0" style="letter-spacing:-0.005005032151150962em">O</tspan><tspan x="60.3" y="0">TOSHOP</tspan></text></g></g></svg>