<svg xmlns="http://www.w3.org/2000/svg" viewBox="0 0 206.8 250.11"><title>typescript</title><g id="Layer_2" data-name="Layer 2"><g id="Logos"><rect x="34.06" y="92.75" width="159.67" height="146.74" style="fill:#f2f2f2"/><path d="M2.5,146.71v100.9H204.3V45.81H2.5Zm162.63-8A25.12,25.12,0,0,1,177.75,146c1.86,2,4.61,5.6,4.83,6.47.07.25-8.71,6.14-14,9.45-.19.12-1-.71-1.83-2-2.59-3.78-5.31-5.41-9.48-5.7-6.11-.42-10.09,2.79-10,8.13a7.46,7.46,0,0,0,.86,3.79c1.35,2.78,3.85,4.45,11.69,7.85,14.45,6.21,20.63,10.31,24.47,16.14,4.29,6.5,5.25,16.88,2.34,24.6-3.2,8.4-11.15,14.1-22.32,16a62,62,0,0,1-15.38-.16c-8.1-1.44-15.79-5.45-20.53-10.7-1.86-2-5.48-7.4-5.25-7.79a15.27,15.27,0,0,1,1.86-1.18l7.49-4.32,5.8-3.37,1.22,1.8a27.14,27.14,0,0,0,7.65,7.34c6.44,3.39,15.28,2.91,19.64-1a8.76,8.76,0,0,0,1.12-11.18c-1.57-2.23-4.77-4.13-13.87-8.07-10.41-4.48-14.9-7.27-19-11.69a26.59,26.59,0,0,1-5.54-10.09,40.34,40.34,0,0,1-.35-12.88c2.14-10.09,9.73-17.07,20.69-19.15a51,51,0,0,1,15.31.45Zm-47.38,8.42.06,8.26H91.55V230H73V155.35H46.71v-8.1l.22-8.32c.09-.13,16.08-.19,35.46-.16l35.26.09Z" style="fill:#73fff8;stroke:#fff;stroke-miterlimit:10;stroke-width:5px"/><text transform="translate(9.62 26.01)" style="font-size:30.243000030517578px;fill:#fff;font-family:FugazOne-Regular, Fugaz One">TYPESCRIPT</text></g></g></svg>