<?xml version="1.0" encoding="utf-8"?>
<!-- Generator: Adobe Illustrator 24.0.1, SVG Export Plug-In . SVG Version: 6.00 Build 0)  -->
<svg version="1.1" id="Layer_1" xmlns="http://www.w3.org/2000/svg" xmlns:xlink="http://www.w3.org/1999/xlink" x="0px" y="0px"
	 viewBox="0 0 206.8 250.1" style="enable-background:new 0 0 206.8 250.1;" xml:space="preserve">
<style type="text/css">
	.st0{fill:#F2F2F2;}
	.st1{fill:#73FFF8;stroke:#FFFFFF;stroke-width:5;stroke-miterlimit:10;}
	.st2{enable-background:new    ;}
	.st3{fill:#FFFFFF;}
</style>
<title>typescript</title>
<g id="Layer_2_1_">
	<g id="Logos">
		<rect x="34.1" y="92.8" class="st0" width="159.7" height="146.7"/>
		<path class="st1" d="M2.5,146.7v100.9h201.8V45.8H2.5V146.7z M165.1,138.7c4.8,1.1,9.2,3.7,12.6,7.3c1.9,2,4.6,5.6,4.8,6.5
			c0.1,0.3-8.7,6.1-14,9.4c-0.2,0.1-1-0.7-1.8-2c-2.6-3.8-5.3-5.4-9.5-5.7c-6.1-0.4-10.1,2.8-10,8.1c-0.1,1.3,0.2,2.6,0.9,3.8
			c1.4,2.8,3.9,4.4,11.7,7.9c14.4,6.2,20.6,10.3,24.5,16.1c4.3,6.5,5.3,16.9,2.3,24.6c-3.2,8.4-11.1,14.1-22.3,16
			c-5.1,0.6-10.3,0.5-15.4-0.2c-8.1-1.4-15.8-5.4-20.5-10.7c-1.9-2-5.5-7.4-5.3-7.8c0.6-0.4,1.2-0.8,1.9-1.2l7.5-4.3l5.8-3.4
			l1.2,1.8c2,2.9,4.6,5.4,7.6,7.3c6.4,3.4,15.3,2.9,19.6-1c3-3,3.5-7.7,1.1-11.2c-1.6-2.2-4.8-4.1-13.9-8.1
			c-10.4-4.5-14.9-7.3-19-11.7c-2.6-2.9-4.5-6.4-5.5-10.1c-0.8-4.2-0.9-8.6-0.4-12.9c2.1-10.1,9.7-17.1,20.7-19.1
			C155,137.7,160.1,137.8,165.1,138.7L165.1,138.7z M117.8,147.1l0.1,8.3H91.6V230H73v-74.6H46.7v-8.1l0.2-8.3
			c0.1-0.1,16.1-0.2,35.5-0.2l35.3,0.1L117.8,147.1z"/>
		<g class="st2">
			<path class="st3" d="M31.8,9h-7.4l-3,17.1h-5.5l3-17.1h-7.5l0.8-4.7h20.4L31.8,9z"/>
			<path class="st3" d="M41.8,11.9l5.1-7.7h5.4L43,17.6L41.5,26h-5.5l1.5-8.4L32.9,4.2h5.8l2.4,7.7H41.8z"/>
			<path class="st3" d="M60.9,19.4h-3.6L56.2,26h-5.4l3.8-21.8h9.2c2.3,0,3.9,0.5,4.9,1.6c0.7,0.8,1.1,1.8,1.1,3.1
				c0,0.4,0,0.9-0.1,1.3L69,13.6c-0.3,1.7-1.2,3-2.7,4.1C64.9,18.8,63.1,19.4,60.9,19.4z M61.9,9h-2.7l-1,5.7h2.7
				c1.7,0,2.6-0.7,2.9-2.2l0.2-1.2c0-0.2,0.1-0.4,0.1-0.7s-0.2-0.6-0.5-1C63.2,9.1,62.7,9,61.9,9z"/>
			<path class="st3" d="M85.2,26H70l3.8-21.8H89L88.2,9h-9.7L77.8,13h8L85,17.8h-8l-0.6,3.5H86L85.2,26z"/>
			<path class="st3" d="M94.5,19.8c0,1.4,1,2.1,3,2.1c2,0,3-0.6,3-1.9c0-0.7-0.3-1.2-1-1.6c-0.7-0.4-1.5-0.8-2.5-1.1
				c-1-0.3-2-0.6-2.9-1c-1-0.4-1.8-1-2.5-1.8c-0.7-0.8-1-1.8-1-3c0-5.1,3.3-7.6,9.8-7.6c2.4,0,4.2,0.4,5.4,1.3s1.8,2.1,1.8,3.7
				c0,0.6-0.1,1.1-0.2,1.7s-0.3,0.9-0.5,1.1l-0.2,0.4h-5.4c0.4-0.5,0.7-1,0.7-1.8c0-1.3-0.9-2-2.6-2c-2.2,0-3.2,0.7-3.2,2.1
				c0,0.7,0.3,1.2,1,1.6c0.7,0.4,1.5,0.7,2.5,1c1,0.2,2,0.5,2.9,0.9c1,0.3,1.8,0.9,2.5,1.7c0.7,0.8,1,1.8,1,3.1
				c0,2.6-0.8,4.5-2.3,5.7s-3.9,1.9-7.1,1.9s-5.4-0.6-6.5-1.7c-0.9-0.8-1.3-2-1.3-3.5c0-0.6,0.1-1.2,0.2-1.8l0.1-0.5h5.4l-0.1,0.4
				C94.5,19.5,94.5,19.6,94.5,19.8z"/>
			<path class="st3" d="M115.9,26.4c-2.9,0-4.9-0.6-6-1.9c-0.8-0.9-1.1-2.1-1.1-3.7c0-0.7,0.1-1.4,0.2-2.2l1.2-7
				c0.9-5.1,4.2-7.7,9.8-7.7c2.3,0,4.1,0.5,5.3,1.5s1.8,2.4,1.8,4.1c0,0.8-0.1,1.6-0.3,2.4c-0.2,0.8-0.5,1.4-0.7,1.8l-0.3,0.6h-5.4
				c0.7-0.8,1-1.9,1-3.3c0-0.7-0.2-1.3-0.6-1.8c-0.4-0.4-0.9-0.6-1.7-0.6c-2,0-3.2,1.1-3.6,3.4l-1.1,6.1c-0.1,0.5-0.2,1-0.2,1.5
				c0,1.3,0.8,2,2.4,2c1.9,0,3.1-1.1,3.4-3.2h5.4l-0.2,0.9C124.7,24.1,121.5,26.4,115.9,26.4z"/>
			<path class="st3" d="M140.4,4.2c2.3,0,3.9,0.5,4.9,1.5c0.7,0.8,1.1,1.7,1.1,2.9c0,0.4,0,0.8-0.1,1.3l-0.4,2.4
				c-0.2,1.3-0.7,2.4-1.3,3.2c-0.6,0.8-1.3,1.4-2,1.7l2.8,8.8h-6.1l-2.5-8.1h-1.9l-1.2,8.1h-5.8l3.8-21.8H140.4z M138.5,9h-2.3
				l-0.8,5.3h2.1c1.1,0,1.8-0.3,2.3-0.8c0.5-0.5,0.7-1.2,0.7-2C140.6,9.8,139.9,9,138.5,9z"/>
			<path class="st3" d="M157,4.2L153.2,26h-5.5l3.8-21.8H157z"/>
			<path class="st3" d="M167.6,19.4H164l-1.2,6.6h-5.4l3.8-21.8h9.2c2.3,0,3.9,0.5,4.9,1.6c0.7,0.8,1.1,1.8,1.1,3.1
				c0,0.4,0,0.9-0.1,1.3l-0.6,3.4c-0.3,1.7-1.2,3-2.7,4.1C171.5,18.8,169.8,19.4,167.6,19.4z M168.6,9h-2.7l-1,5.7h2.7
				c1.7,0,2.6-0.7,2.9-2.2l0.2-1.2c0-0.2,0.1-0.4,0.1-0.7s-0.2-0.6-0.5-1C169.9,9.1,169.4,9,168.6,9z"/>
			<path class="st3" d="M198.3,9h-7.4l-3,17.1h-5.5l3-17.1h-7.5l0.8-4.7h20.4L198.3,9z"/>
		</g>
	</g>
</g>
</svg>
