<?xml version="1.0" encoding="utf-8"?>
<!-- Generator: Adobe Illustrator 24.0.1, SVG Export Plug-In . SVG Version: 6.00 Build 0)  -->
<svg version="1.1" id="PRINT" xmlns="http://www.w3.org/2000/svg" xmlns:xlink="http://www.w3.org/1999/xlink" x="0px" y="0px"
	 viewBox="0 0 595.3 841.9" style="enable-background:new 0 0 595.3 841.9;" xml:space="preserve">
<style type="text/css">
	.st0{fill:#FFFFFF;}
	.st1{fill:#19191B;}
	.st2{clip-path:url(#SVGID_2_);}
	.st3{fill:#C6C6C6;}
	.st4{font-family:'Montserrat-Bold';}
	.st5{font-size:33px;}
	.st6{letter-spacing:2;}
	.st7{letter-spacing:3;}
	.st8{letter-spacing:4;}
	.st9{font-family:'Montserrat-Light';}
	.st10{font-size:10.63px;}
	.st11{letter-spacing:1;}
	.st12{font-size:9px;}
	.st13{letter-spacing:5;}
	.st14{letter-spacing:6;}
	.st15{letter-spacing:7;}
	.st16{font-size:13.69px;}
	.st17{fill:#444242;}
	.st18{font-size:10.24px;}
	.st19{font-family:'Montserrat-Medium';}
	.st20{font-family:'Montserrat-SemiBold';}
	.st21{font-size:8.84px;}
	.st22{font-size:9.31px;}
	.st23{font-size:8.38px;}
	.st24{font-family:'Montserrat-Regular';}
	.st25{font-size:0.1px;}
</style>
<title>CV</title>
<rect x="-8.5" y="-33.4" class="st0" width="612.3" height="858.9"/>
<rect x="-8.5" y="-8.5" class="st1" width="612.3" height="305.5"/>
<g>
	<defs>
		<rect id="SVGID_1_" x="287" y="117" width="269" height="269"/>
	</defs>
	<clipPath id="SVGID_2_">
		<use xlink:href="#SVGID_1_"  style="overflow:visible;"/>
	</clipPath>
	<g class="st2">
		<rect x="208.1" y="50" class="st3" width="427.7" height="357.9"/>
	</g>
</g>
<text transform="matrix(1 0 0 1 38.65 75.11)" class="st0 st4 st5 st6">S</text>
<text transform="matrix(1 0 0 1 62.67 75.11)" class="st0 st4 st5 st7">TE</text>
<text transform="matrix(1 0 0 1 111.81 75.11)" class="st0 st4 st5 st6">P</text>
<text transform="matrix(1 0 0 1 138.94 75.11)" class="st0 st4 st5 st7">HAN HADI</text>
<text transform="matrix(1 0 0 1 343.3 75.11)" class="st0 st4 st5 st7">T</text>
<text transform="matrix(1 0 0 1 366.83 75.11)" class="st0 st4 st5 st7">SCH, </text>
<text transform="matrix(1 0 0 1 473.22 75.11)" class="st0 st4 st5 st7">B</text>
<text transform="matrix(1 0 0 1 501.97 75.11)" class="st0 st4 st5 st8">.A</text>
<text transform="matrix(1 0 0 1 544.6 75.11)" class="st0 st4 st5 st7">.</text>
<text transform="matrix(1 0 0 1 38.07 99.36)" class="st0 st9 st10 st6">JUNIOR FRON</text>
<text transform="matrix(1 0 0 1 138.13 99.36)" class="st0 st9 st10 st11">T</text>
<text transform="matrix(1 0 0 1 145.91 99.36)" class="st0 st9 st10 st6">-END D</text>
<text transform="matrix(1 0 0 1 198.78 99.36)" class="st0 st9 st10 st6">E</text>
<text transform="matrix(1 0 0 1 207.91 99.36)" class="st0 st9 st10 st11">V</text>
<text transform="matrix(1 0 0 1 217.19 99.36)" class="st0 st9 st10 st6">E</text>
<text transform="matrix(1 0 0 1 226.42 99.36)" class="st0 st9 st10 st6">L</text>
<text transform="matrix(1 0 0 1 234.62 99.36)" class="st0 st9 st10 st6">O</text>
<text transform="matrix(1 0 0 1 245.66 99.36)" class="st0 st9 st10 st6">P</text>
<text transform="matrix(1 0 0 1 255.28 99.36)" class="st0 st9 st10 st6">ER</text>
<text transform="matrix(1 0 0 1 38.76 158.01)" class="st0 st9 st12">C</text>
<text transform="matrix(1 0 0 1 45.2 158.01)" class="st0 st9 st12">r</text>
<text transform="matrix(1 0 0 1 48.62 158.01)" class="st0 st9 st12">e</text>
<text transform="matrix(1 0 0 1 53.86 158.01)" class="st0 st9 st12">ati</text>
<text transform="matrix(1 0 0 1 65.04 158.01)" class="st0 st9 st12">v</text>
<text transform="matrix(1 0 0 1 69.66 158.01)" class="st0 st9 st12">e,</text>
<text transform="matrix(1 0 0 1 76.83 158.01)" class="st0 st9 st12 st13"> </text>
<text transform="matrix(1 0 0 1 84.66 158.01)" class="st0 st9 st12">sel</text>
<text transform="matrix(1 0 0 1 96.68 158.01)" class="st0 st9 st12">f</text>
<text transform="matrix(1 0 0 1 99.54 158.01)" class="st0 st9 st12">-</text>
<text transform="matrix(1 0 0 1 102.97 158.01)" class="st0 st9 st12">m</text>
<text transform="matrix(1 0 0 1 112.56 158.01)" class="st0 st9 st12">oti</text>
<text transform="matrix(1 0 0 1 124.07 158.01)" class="st0 st9 st12">v</text>
<text transform="matrix(1 0 0 1 128.68 158.01)" class="st0 st9 st12">a</text>
<text transform="matrix(1 0 0 1 133.92 158.01)" class="st0 st9 st12">t</text>
<text transform="matrix(1 0 0 1 137.33 158.01)" class="st0 st9 st12">ed</text>
<text transform="matrix(1 0 0 1 148.78 158.01)" class="st0 st9 st12 st13"> </text>
<text transform="matrix(1 0 0 1 156.61 158.01)" class="st0 st9 st12">a</text>
<text transform="matrix(1 0 0 1 161.85 158.01)" class="st0 st9 st12">n</text>
<text transform="matrix(1 0 0 1 167.92 158.01)" class="st0 st9 st12">d</text>
<text transform="matrix(1 0 0 1 174 158.01)" class="st0 st9 st12 st13"> </text>
<text transform="matrix(1 0 0 1 181.82 158.01)" class="st0 st9 st12">e</text>
<text transform="matrix(1 0 0 1 187.06 158.01)" class="st0 st9 st12">xt</text>
<text transform="matrix(1 0 0 1 195.31 158.01)" class="st0 st9 st12">r</text>
<text transform="matrix(1 0 0 1 198.73 158.01)" class="st0 st9 st12">e</text>
<text transform="matrix(1 0 0 1 204.11 158.01)" class="st0 st9 st12">m</text>
<text transform="matrix(1 0 0 1 213.69 158.01)" class="st0 st9 st12">ely </text>
<text transform="matrix(1 0 0 1 38.76 170.01)" class="st0 st9 st12">p</text>
<text transform="matrix(1 0 0 1 44.82 170.01)" class="st0 st9 st12">assiona</text>
<text transform="matrix(1 0 0 1 77.9 170.01)" class="st0 st9 st12">t</text>
<text transform="matrix(1 0 0 1 81.31 170.01)" class="st0 st9 st12">e</text>
<text transform="matrix(1 0 0 1 86.68 170.01)" class="st0 st9 st12"> </text>
<text transform="matrix(1 0 0 1 88.71 170.01)" class="st0 st9 st12">about</text>
<text transform="matrix(1 0 0 1 115.22 170.01)" class="st0 st9 st12"> </text>
<text transform="matrix(1 0 0 1 117.24 170.01)" class="st0 st9 st12">m</text>
<text transform="matrix(1 0 0 1 126.73 170.01)" class="st0 st9 st12">y</text>
<text transform="matrix(1 0 0 1 131.48 170.01)" class="st0 st9 st12"> </text>
<text transform="matrix(1 0 0 1 133.51 170.01)" class="st0 st9 st12">w</text>
<text transform="matrix(1 0 0 1 141.13 170.01)" class="st0 st9 st12">o</text>
<text transform="matrix(1 0 0 1 146.71 170.01)" class="st0 st9 st12">r</text>
<text transform="matrix(1 0 0 1 150.17 170.01)" class="st0 st9 st12">k</text>
<text transform="matrix(1 0 0 1 155.56 170.01)" class="st0 st9 st12">,</text>
<text transform="matrix(1 0 0 1 157.36 170.01)" class="st0 st9 st12"> </text>
<text transform="matrix(1 0 0 1 159.38 170.01)" class="st0 st9 st12">I</text>
<text transform="matrix(1 0 0 1 162.04 170.01)" class="st0 st9 st12"> </text>
<text transform="matrix(1 0 0 1 164.06 170.01)" class="st0 st9 st12">h</text>
<text transform="matrix(1 0 0 1 170.12 170.01)" class="st0 st9 st12">a</text>
<text transform="matrix(1 0 0 1 175.28 170.01)" class="st0 st9 st12">v</text>
<text transform="matrix(1 0 0 1 179.89 170.01)" class="st0 st9 st12">e</text>
<text transform="matrix(1 0 0 1 185.27 170.01)" class="st0 st9 st12"> </text>
<text transform="matrix(1 0 0 1 187.29 170.01)" class="st0 st9 st12">a</text>
<text transform="matrix(1 0 0 1 192.54 170.01)" class="st0 st9 st12"> </text>
<text transform="matrix(1 0 0 1 194.56 170.01)" class="st0 st9 st12">di</text>
<text transform="matrix(1 0 0 1 202.99 170.01)" class="st0 st9 st12">v</text>
<text transform="matrix(1 0 0 1 207.61 170.01)" class="st0 st9 st12">e</text>
<text transform="matrix(1 0 0 1 212.98 170.01)" class="st0 st9 st12">r</text>
<text transform="matrix(1 0 0 1 216.49 170.01)" class="st0 st9 st12">se </text>
<text transform="matrix(1 0 0 1 38.76 182.01)" class="st0 st9 st12">b</text>
<text transform="matrix(1 0 0 1 44.82 182.01)" class="st0 st9 st12">a</text>
<text transform="matrix(1 0 0 1 50.07 182.01)" class="st0 st9 st12">c</text>
<text transform="matrix(1 0 0 1 54.99 182.01)" class="st0 st9 st12">k</text>
<text transform="matrix(1 0 0 1 60.09 182.01)" class="st0 st9 st12">g</text>
<text transform="matrix(1 0 0 1 66.23 182.01)" class="st0 st9 st12">r</text>
<text transform="matrix(1 0 0 1 69.65 182.01)" class="st0 st9 st12">ou</text>
<text transform="matrix(1 0 0 1 81.25 182.01)" class="st0 st9 st12">n</text>
<text transform="matrix(1 0 0 1 87.31 182.01)" class="st0 st9 st12">d</text>
<text transform="matrix(1 0 0 1 93.39 182.01)" class="st0 st9 st12"> </text>
<text transform="matrix(1 0 0 1 96.6 182.01)" class="st0 st9 st12">in</text>
<text transform="matrix(1 0 0 1 105.01 182.01)" class="st0 st9 st12"> </text>
<text transform="matrix(1 0 0 1 108.22 182.01)" class="st0 st9 st12">design</text>
<text transform="matrix(1 0 0 1 138.51 182.01)" class="st0 st9 st12"> </text>
<text transform="matrix(1 0 0 1 141.73 182.01)" class="st0 st9 st12">a</text>
<text transform="matrix(1 0 0 1 146.97 182.01)" class="st0 st9 st12">n</text>
<text transform="matrix(1 0 0 1 153.04 182.01)" class="st0 st9 st12">d</text>
<text transform="matrix(1 0 0 1 159.11 182.01)" class="st0 st9 st12"> </text>
<text transform="matrix(1 0 0 1 162.33 182.01)" class="st0 st9 st12">im</text>
<text transform="matrix(1 0 0 1 174.25 182.01)" class="st0 st9 st12">a</text>
<text transform="matrix(1 0 0 1 179.51 182.01)" class="st0 st9 st12">ge</text>
<text transform="matrix(1 0 0 1 191.02 182.01)" class="st0 st9 st12"> </text>
<text transform="matrix(1 0 0 1 194.23 182.01)" class="st0 st9 st12">editi</text>
<text transform="matrix(1 0 0 1 213.96 182.01)" class="st0 st9 st12">n</text>
<text transform="matrix(1 0 0 1 220.03 182.01)" class="st0 st9 st12">g </text>
<text transform="matrix(1 0 0 1 38.76 194.01)" class="st0 st9 st12">a</text>
<text transform="matrix(1 0 0 1 44.01 194.01)" class="st0 st9 st12">n</text>
<text transform="matrix(1 0 0 1 50.07 194.01)" class="st0 st9 st12">d</text>
<text transform="matrix(1 0 0 1 56.15 194.01)" class="st0 st9 st12 st14"> </text>
<text transform="matrix(1 0 0 1 65.44 194.01)" class="st0 st9 st12">f</text>
<text transform="matrix(1 0 0 1 68.31 194.01)" class="st0 st9 st12">ou</text>
<text transform="matrix(1 0 0 1 79.91 194.01)" class="st0 st9 st12">n</text>
<text transform="matrix(1 0 0 1 85.97 194.01)" class="st0 st9 st12">d</text>
<text transform="matrix(1 0 0 1 92.05 194.01)" class="st0 st9 st12 st15"> </text>
<text transform="matrix(1 0 0 1 101.34 194.01)" class="st0 st9 st12">m</text>
<text transform="matrix(1 0 0 1 110.82 194.01)" class="st0 st9 st12">y</text>
<text transform="matrix(1 0 0 1 115.57 194.01)" class="st0 st9 st12 st14"> </text>
<text transform="matrix(1 0 0 1 124.86 194.01)" class="st0 st9 st12">n</text>
<text transform="matrix(1 0 0 1 130.93 194.01)" class="st0 st9 st12">e</text>
<text transform="matrix(1 0 0 1 136.21 194.01)" class="st0 st9 st12">w</text>
<text transform="matrix(1 0 0 1 143.97 194.01)" class="st0 st9 st12 st14"> </text>
<text transform="matrix(1 0 0 1 153.26 194.01)" class="st0 st9 st12">p</text>
<text transform="matrix(1 0 0 1 159.31 194.01)" class="st0 st9 st12">assion</text>
<text transform="matrix(1 0 0 1 187.15 194.01)" class="st0 st9 st12 st14"> </text>
<text transform="matrix(1 0 0 1 196.44 194.01)" class="st0 st9 st12">t</text>
<text transform="matrix(1 0 0 1 199.85 194.01)" class="st0 st9 st12">o</text>
<text transform="matrix(1 0 0 1 205.43 194.01)" class="st0 st9 st12 st15"> </text>
<text transform="matrix(1 0 0 1 214.72 194.01)" class="st0 st9 st12">be </text>
<text transform="matrix(1 0 0 1 38.76 206.01)" class="st0 st9 st12">f</text>
<text transform="matrix(1 0 0 1 42.43 206.01)" class="st0 st9 st12">r</text>
<text transform="matrix(1 0 0 1 45.85 206.01)" class="st0 st9 st12">on</text>
<text transform="matrix(1 0 0 1 57.49 206.01)" class="st0 st9 st12">t</text>
<text transform="matrix(1 0 0 1 60.98 206.01)" class="st0 st9 st12">-</text>
<text transform="matrix(1 0 0 1 64.5 206.01)" class="st0 st9 st12">e</text>
<text transform="matrix(1 0 0 1 69.87 206.01)" class="st0 st9 st12">n</text>
<text transform="matrix(1 0 0 1 75.94 206.01)" class="st0 st9 st12">d</text>
<text transform="matrix(1 0 0 1 82.01 206.01)" class="st0 st9 st12 st13"> </text>
<text transform="matrix(1 0 0 1 89.53 206.01)" class="st0 st9 st12">a</text>
<text transform="matrix(1 0 0 1 94.78 206.01)" class="st0 st9 st12">n</text>
<text transform="matrix(1 0 0 1 100.85 206.01)" class="st0 st9 st12">d</text>
<text transform="matrix(1 0 0 1 106.92 206.01)" class="st0 st9 st12 st13"> </text>
<text transform="matrix(1 0 0 1 114.44 206.01)" class="st0 st9 st12">b</text>
<text transform="matrix(1 0 0 1 120.5 206.01)" class="st0 st9 st12">a</text>
<text transform="matrix(1 0 0 1 125.76 206.01)" class="st0 st9 st12">c</text>
<text transform="matrix(1 0 0 1 130.67 206.01)" class="st0 st9 st12">k</text>
<text transform="matrix(1 0 0 1 135.77 206.01)" class="st0 st9 st12">-</text>
<text transform="matrix(1 0 0 1 139.29 206.01)" class="st0 st9 st12">e</text>
<text transform="matrix(1 0 0 1 144.66 206.01)" class="st0 st9 st12">n</text>
<text transform="matrix(1 0 0 1 150.73 206.01)" class="st0 st9 st12">d</text>
<text transform="matrix(1 0 0 1 156.81 206.01)" class="st0 st9 st12 st13"> </text>
<text transform="matrix(1 0 0 1 164.33 206.01)" class="st0 st9 st12">d</text>
<text transform="matrix(1 0 0 1 170.4 206.01)" class="st0 st9 st12">e</text>
<text transform="matrix(1 0 0 1 175.68 206.01)" class="st0 st9 st12">v</text>
<text transform="matrix(1 0 0 1 180.3 206.01)" class="st0 st9 st12">elop</text>
<text transform="matrix(1 0 0 1 199.68 206.01)" class="st0 st9 st12">m</text>
<text transform="matrix(1 0 0 1 209.26 206.01)" class="st0 st9 st12">en</text>
<text transform="matrix(1 0 0 1 220.69 206.01)" class="st0 st9 st12">t</text>
<text transform="matrix(1 0 0 1 224.36 206.01)" class="st0 st9 st12">. </text>
<text transform="matrix(1 0 0 1 38.76 218.01)" class="st0 st9 st12">P</text>
<text transform="matrix(1 0 0 1 45.06 218.01)" class="st0 st9 st12">assiona</text>
<text transform="matrix(1 0 0 1 78.14 218.01)" class="st0 st9 st12">t</text>
<text transform="matrix(1 0 0 1 81.55 218.01)" class="st0 st9 st12">e about a</text>
<text transform="matrix(1 0 0 1 123.31 218.01)" class="st0 st9 st12">r</text>
<text transform="matrix(1 0 0 1 126.99 218.01)" class="st0 st9 st12">t a</text>
<text transform="matrix(1 0 0 1 138.13 218.01)" class="st0 st9 st12">n</text>
<text transform="matrix(1 0 0 1 144.2 218.01)" class="st0 st9 st12">d music a</text>
<text transform="matrix(1 0 0 1 187.39 218.01)" class="st0 st9 st12">n</text>
<text transform="matrix(1 0 0 1 193.45 218.01)" class="st0 st9 st12">d </text>
<text transform="matrix(1 0 0 1 201.84 218.01)" class="st0 st9 st12">c</text>
<text transform="matrix(1 0 0 1 206.75 218.01)" class="st0 st9 st12">ons</text>
<text transform="matrix(1 0 0 1 222.69 218.01)" class="st0 st9 st12">-</text>
<text transform="matrix(1 0 0 1 38.76 230.01)" class="st0 st9 st12">tantly</text>
<text transform="matrix(1 0 0 1 64.33 230.01)" class="st0 st9 st12"> </text>
<text transform="matrix(1 0 0 1 67.15 230.01)" class="st0 st9 st12">e</text>
<text transform="matrix(1 0 0 1 72.39 230.01)" class="st0 st9 st12">xplo</text>
<text transform="matrix(1 0 0 1 91.07 230.01)" class="st0 st9 st12">r</text>
<text transform="matrix(1 0 0 1 94.53 230.01)" class="st0 st9 st12">i</text>
<text transform="matrix(1 0 0 1 96.88 230.01)" class="st0 st9 st12">n</text>
<text transform="matrix(1 0 0 1 102.95 230.01)" class="st0 st9 st12">g</text>
<text transform="matrix(1 0 0 1 109.08 230.01)" class="st0 st9 st12"> </text>
<text transform="matrix(1 0 0 1 111.91 230.01)" class="st0 st9 st12">a</text>
<text transform="matrix(1 0 0 1 117.15 230.01)" class="st0 st9 st12">n</text>
<text transform="matrix(1 0 0 1 123.22 230.01)" class="st0 st9 st12">d</text>
<text transform="matrix(1 0 0 1 129.3 230.01)" class="st0 st9 st12"> </text>
<text transform="matrix(1 0 0 1 132.12 230.01)" class="st0 st9 st12">l</text>
<text transform="matrix(1 0 0 1 134.47 230.01)" class="st0 st9 st12">e</text>
<text transform="matrix(1 0 0 1 139.71 230.01)" class="st0 st9 st12">a</text>
<text transform="matrix(1 0 0 1 144.95 230.01)" class="st0 st9 st12">r</text>
<text transform="matrix(1 0 0 1 148.42 230.01)" class="st0 st9 st12">ni</text>
<text transform="matrix(1 0 0 1 156.82 230.01)" class="st0 st9 st12">n</text>
<text transform="matrix(1 0 0 1 162.89 230.01)" class="st0 st9 st12">g.</text>
<text transform="matrix(1 0 0 1 170.83 230.01)" class="st0 st9 st12"> </text>
<text transform="matrix(1 0 0 1 173.65 230.01)" class="st0 st9 st12">I</text>
<text transform="matrix(1 0 0 1 176.31 230.01)" class="st0 st9 st12"> </text>
<text transform="matrix(1 0 0 1 179.13 230.01)" class="st0 st9 st12">see</text>
<text transform="matrix(1 0 0 1 194.18 230.01)" class="st0 st9 st12"> </text>
<text transform="matrix(1 0 0 1 197 230.01)" class="st0 st9 st12">m</text>
<text transform="matrix(1 0 0 1 206.49 230.01)" class="st0 st9 st12">y</text>
<text transform="matrix(1 0 0 1 211.19 230.01)" class="st0 st9 st12">self </text>
<text transform="matrix(1 0 0 1 38.76 242.01)" class="st0 st9 st12">as</text>
<text transform="matrix(1 0 0 1 48.31 242.01)" class="st0 st9 st12 st11"> </text>
<text transform="matrix(1 0 0 1 52.17 242.01)" class="st0 st9 st12">an</text>
<text transform="matrix(1 0 0 1 63.48 242.01)" class="st0 st9 st12 st11"> </text>
<text transform="matrix(1 0 0 1 67.34 242.01)" class="st0 st9 st12">enthusiastic</text>
<text transform="matrix(1 0 0 1 121.55 242.01)" class="st0 st9 st12 st11"> </text>
<text transform="matrix(1 0 0 1 125.42 242.01)" class="st0 st9 st12">a</text>
<text transform="matrix(1 0 0 1 130.66 242.01)" class="st0 st9 st12">n</text>
<text transform="matrix(1 0 0 1 136.73 242.01)" class="st0 st9 st12">d</text>
<text transform="matrix(1 0 0 1 142.8 242.01)" class="st0 st9 st12 st11"> </text>
<text transform="matrix(1 0 0 1 146.67 242.01)" class="st0 st9 st12">optimistic</text>
<text transform="matrix(1 0 0 1 191.4 242.01)" class="st0 st9 st12 st11"> </text>
<text transform="matrix(1 0 0 1 195.27 242.01)" class="st0 st9 st12">pe</text>
<text transform="matrix(1 0 0 1 206.72 242.01)" class="st0 st9 st12">r</text>
<text transform="matrix(1 0 0 1 210.23 242.01)" class="st0 st9 st12">son </text>
<text transform="matrix(1 0 0 1 38.76 254.01)" class="st0 st9 st12">w</text>
<text transform="matrix(1 0 0 1 46.52 254.01)" class="st0 st9 st12">h</text>
<text transform="matrix(1 0 0 1 52.58 254.01)" class="st0 st9 st12">o is al</text>
<text transform="matrix(1 0 0 1 77.04 254.01)" class="st0 st9 st12">w</text>
<text transform="matrix(1 0 0 1 84.65 254.01)" class="st0 st9 st12">a</text>
<text transform="matrix(1 0 0 1 89.81 254.01)" class="st0 st9 st12">y</text>
<text transform="matrix(1 0 0 1 94.51 254.01)" class="st0 st9 st12">s up </text>
<text transform="matrix(1 0 0 1 115.53 254.01)" class="st0 st9 st12">f</text>
<text transform="matrix(1 0 0 1 118.4 254.01)" class="st0 st9 st12">or a </text>
<text transform="matrix(1 0 0 1 137.4 254.01)" class="st0 st9 st12">c</text>
<text transform="matrix(1 0 0 1 142.31 254.01)" class="st0 st9 st12">halle</text>
<text transform="matrix(1 0 0 1 163.69 254.01)" class="st0 st9 st12">n</text>
<text transform="matrix(1 0 0 1 169.75 254.01)" class="st0 st9 st12">ge.</text>
<text transform="matrix(1 0 0 1 36.2 553.59)" class="st1 st4 st16 st11">SKIL</text>
<text transform="matrix(1 0 0 1 73.3 553.59)" class="st1 st4 st16 st11">L</text>
<text transform="matrix(1 0 0 1 82.88 553.59)" class="st1 st4 st16 st11">S</text>
<text transform="matrix(1 0 0 1 36.08 578.67)" class="st17 st4 st18">FRON</text>
<text transform="matrix(1 0 0 1 67.06 578.67)" class="st17 st4 st18">T</text>
<text transform="matrix(1 0 0 1 73.01 578.67)" class="st17 st4 st18">-END</text>
<text transform="matrix(1 0 0 1 36.08 620.96)" class="st17 st19 st12">C</text>
<text transform="matrix(1 0 0 1 42.56 620.96)" class="st17 st19 st12">SS</text>
<text transform="matrix(1 0 0 1 36.08 640.96)" class="st17 st19 st12">J</text>
<text transform="matrix(1 0 0 1 40.7 640.96)" class="st17 st19 st12">a</text>
<text transform="matrix(1 0 0 1 45.99 640.96)" class="st17 st19 st12">v</text>
<text transform="matrix(1 0 0 1 50.87 640.96)" class="st17 st19 st12">aSc</text>
<text transform="matrix(1 0 0 1 66.98 640.96)" class="st17 st19 st12">r</text>
<text transform="matrix(1 0 0 1 70.6 640.96)" class="st17 st19 st12">ipt</text>
<text transform="matrix(1 0 0 1 36.33 660.96)" class="st17 st19 st12">A</text>
<text transform="matrix(1 0 0 1 42.92 660.96)" class="st17 st19 st12">n</text>
<text transform="matrix(1 0 0 1 49.07 660.96)" class="st17 st19 st12">gular</text>
<text transform="matrix(1 0 0 1 36.33 680.96)" class="st17 st19 st12">T</text>
<text transform="matrix(1 0 0 1 41.32 680.96)" class="st17 st19 st12">ypeSc</text>
<text transform="matrix(1 0 0 1 68.72 680.96)" class="st17 st19 st12">r</text>
<text transform="matrix(1 0 0 1 72.35 680.96)" class="st17 st19 st12">ipt</text>
<text transform="matrix(1 0 0 1 36.33 700.96)" class="st17 st19 st12">Bootst</text>
<text transform="matrix(1 0 0 1 66.53 700.96)" class="st17 st19 st12">r</text>
<text transform="matrix(1 0 0 1 70.15 700.96)" class="st17 st19 st12">ap</text>
<text transform="matrix(1 0 0 1 36.33 721.24)" class="st17 st19 st12">W</text>
<text transform="matrix(1 0 0 1 45.97 721.24)" class="st17 st19 st12">o</text>
<text transform="matrix(1 0 0 1 51.68 721.24)" class="st17 st19 st12">r</text>
<text transform="matrix(1 0 0 1 55.27 721.24)" class="st17 st19 st12">dp</text>
<text transform="matrix(1 0 0 1 67.54 721.24)" class="st17 st19 st12">r</text>
<text transform="matrix(1 0 0 1 71.12 721.24)" class="st17 st19 st12">ess</text>
<text transform="matrix(1 0 0 1 36.08 601.1)" class="st17 st19 st12">HTML</text>
<text transform="matrix(1 0 0 1 136.32 578.49)" class="st17 st4 st18">O</text>
<text transform="matrix(1 0 0 1 144.86 578.49)" class="st17 st4 st18">THER</text>
<text transform="matrix(1 0 0 1 136.32 620.77)" class="st17 st19 st12">A</text>
<text transform="matrix(1 0 0 1 142.86 620.77)" class="st17 st19 st12">dobe Illust</text>
<text transform="matrix(1 0 0 1 190.92 620.77)" class="st17 st19 st12">r</text>
<text transform="matrix(1 0 0 1 194.54 620.77)" class="st17 st19 st12">a</text>
<text transform="matrix(1 0 0 1 199.92 620.77)" class="st17 st19 st12">t</text>
<text transform="matrix(1 0 0 1 203.49 620.77)" class="st17 st19 st12">or</text>
<text transform="matrix(1 0 0 1 136.32 640.77)" class="st17 st19 st12">A</text>
<text transform="matrix(1 0 0 1 142.86 640.77)" class="st17 st19 st12">dobe P</text>
<text transform="matrix(1 0 0 1 175.28 640.77)" class="st17 st19 st12">h</text>
<text transform="matrix(1 0 0 1 181.44 640.77)" class="st17 st19 st12">o</text>
<text transform="matrix(1 0 0 1 187.15 640.77)" class="st17 st19 st12">t</text>
<text transform="matrix(1 0 0 1 190.72 640.77)" class="st17 st19 st12">os</text>
<text transform="matrix(1 0 0 1 200.94 640.77)" class="st17 st19 st12">h</text>
<text transform="matrix(1 0 0 1 207.1 640.77)" class="st17 st19 st12">op</text>
<text transform="matrix(1 0 0 1 136.57 660.77)" class="st17 st19 st12">A</text>
<text transform="matrix(1 0 0 1 143.11 660.77)" class="st17 st19 st12">dobe </text>
<text transform="matrix(1 0 0 1 169.03 660.77)" class="st17 st19 st12">P</text>
<text transform="matrix(1 0 0 1 175.36 660.77)" class="st17 st19 st12">r</text>
<text transform="matrix(1 0 0 1 178.94 660.77)" class="st17 st19 st12">emie</text>
<text transform="matrix(1 0 0 1 201.98 660.77)" class="st17 st19 st12">r</text>
<text transform="matrix(1 0 0 1 205.56 660.77)" class="st17 st19 st12">e</text>
<text transform="matrix(1 0 0 1 136.57 680.77)" class="st17 st19 st12">A</text>
<text transform="matrix(1 0 0 1 143.11 680.77)" class="st17 st19 st12">dobe Af</text>
<text transform="matrix(1 0 0 1 178.8 680.77)" class="st17 st19 st12">t</text>
<text transform="matrix(1 0 0 1 182.36 680.77)" class="st17 st19 st12">er Ef</text>
<text transform="matrix(1 0 0 1 203.19 680.77)" class="st17 st19 st12">f</text>
<text transform="matrix(1 0 0 1 206.29 680.77)" class="st17 st19 st12">e</text>
<text transform="matrix(1 0 0 1 211.8 680.77)" class="st17 st19 st12">c</text>
<text transform="matrix(1 0 0 1 217 680.77)" class="st17 st19 st12">ts</text>
<text transform="matrix(1 0 0 1 136.57 700.77)" class="st17 st19 st12">A</text>
<text transform="matrix(1 0 0 1 143.11 700.77)" class="st17 st19 st12">dobe </text>
<text transform="matrix(1 0 0 1 169.03 700.77)" class="st17 st19 st12">X</text>
<text transform="matrix(1 0 0 1 174.88 700.77)" class="st17 st19 st12">D</text>
<text transform="matrix(1 0 0 1 136.57 721.24)" class="st17 st19 st12">Able</text>
<text transform="matrix(1 0 0 1 157.31 721.24)" class="st17 st19 st12">t</text>
<text transform="matrix(1 0 0 1 160.88 721.24)" class="st17 st19 st12">on Li</text>
<text transform="matrix(1 0 0 1 183 721.24)" class="st17 st19 st12">v</text>
<text transform="matrix(1 0 0 1 187.9 721.24)" class="st17 st19 st12">e</text>
<text transform="matrix(1 0 0 1 136.32 600.92)" class="st17 st19 st12">M</text>
<text transform="matrix(1 0 0 1 144.91 600.92)" class="st17 st19 st12">S</text>
<text transform="matrix(1 0 0 1 150.66 600.92)" class="st17 st19 st12">-</text>
<text transform="matrix(1 0 0 1 154.17 600.92)" class="st17 st19 st12">Offi</text>
<text transform="matrix(1 0 0 1 171.31 600.92)" class="st17 st19 st12">c</text>
<text transform="matrix(1 0 0 1 176.38 600.92)" class="st17 st19 st12">e</text>
<text transform="matrix(1 0 0 1 35.84 749.61)" class="st17 st4 st18">B</text>
<text transform="matrix(1 0 0 1 43.67 749.61)" class="st17 st4 st18">A</text>
<text transform="matrix(1 0 0 1 51.41 749.61)" class="st17 st4 st18">C</text>
<text transform="matrix(1 0 0 1 58.91 749.61)" class="st17 st4 st18">K</text>
<text transform="matrix(1 0 0 1 66.12 749.61)" class="st17 st4 st18">-END</text>
<text transform="matrix(1 0 0 1 35.84 791.89)" class="st17 st19 st12">P</text>
<text transform="matrix(1 0 0 1 42.25 791.89)" class="st17 st19 st12">HP</text>
<text transform="matrix(1 0 0 1 35.84 811.89)" class="st17 st19 st12">S</text>
<text transform="matrix(1 0 0 1 41.34 811.89)" class="st17 st19 st12">ym</text>
<text transform="matrix(1 0 0 1 55.88 811.89)" class="st17 st19 st12">f</text>
<text transform="matrix(1 0 0 1 58.99 811.89)" class="st17 st19 st12">o</text>
<text transform="matrix(1 0 0 1 64.7 811.89)" class="st17 st19 st12">n</text>
<text transform="matrix(1 0 0 1 70.74 811.89)" class="st17 st19 st12">y</text>
<text transform="matrix(1 0 0 1 35.84 772.04)" class="st17 st19 st12">SQL (</text>
<text transform="matrix(1 0 0 1 59.79 772.04)" class="st17 st19 st12">m</text>
<text transform="matrix(1 0 0 1 69.21 772.04)" class="st17 st19 st12">y</text>
<text transform="matrix(1 0 0 1 74.18 772.04)" class="st17 st19 st12">SQL)</text>
<text transform="matrix(1 0 0 1 135.24 749.6)" class="st17 st4 st18">L</text>
<text transform="matrix(1 0 0 1 141.48 749.6)" class="st17 st4 st18">ANG</text>
<text transform="matrix(1 0 0 1 165.49 749.6)" class="st17 st4 st18">U</text>
<text transform="matrix(1 0 0 1 173.4 749.6)" class="st17 st4 st18">A</text>
<text transform="matrix(1 0 0 1 181.14 749.6)" class="st17 st4 st18">GES</text>
<text transform="matrix(1 0 0 1 135.24 791.89)" class="st17 st19 st12">E</text>
<text transform="matrix(1 0 0 1 141.27 791.89)" class="st17 st19 st12">n</text>
<text transform="matrix(1 0 0 1 147.43 791.89)" class="st17 st19 st12">glish (fluent)</text>
<text transform="matrix(1 0 0 1 135.24 811.89)" class="st17 st19 st12">S</text>
<text transform="matrix(1 0 0 1 140.83 811.89)" class="st17 st19 st12">p</text>
<text transform="matrix(1 0 0 1 146.92 811.89)" class="st17 st19 st12">anish (</text>
<text transform="matrix(1 0 0 1 177.04 811.89)" class="st17 st19 st12">b</text>
<text transform="matrix(1 0 0 1 183.13 811.89)" class="st17 st19 st12">asi</text>
<text transform="matrix(1 0 0 1 195.53 811.89)" class="st17 st19 st12">c</text>
<text transform="matrix(1 0 0 1 200.47 811.89)" class="st17 st19 st12">)</text>
<text transform="matrix(1 0 0 1 135.24 772.04)" class="st17 st19 st12">Ge</text>
<text transform="matrix(1 0 0 1 147.7 772.04)" class="st17 st19 st12">r</text>
<text transform="matrix(1 0 0 1 151.32 772.04)" class="st17 st19 st12">man (nati</text>
<text transform="matrix(1 0 0 1 195.55 772.04)" class="st17 st19 st12">v</text>
<text transform="matrix(1 0 0 1 200.44 772.04)" class="st17 st19 st12">e)</text>
<text transform="matrix(1 0 0 1 274.27 748.69)" class="st1 st20 st21">2016 - 2020</text>
<text transform="matrix(1 0 0 1 285.1 714.16)" class="st1 st4 st16 st11">E</text>
<text transform="matrix(1 0 0 1 295.56 714.16)" class="st1 st4 st16 st11">X</text>
<text transform="matrix(1 0 0 1 306.4 714.16)" class="st1 st4 st16 st11">P</text>
<text transform="matrix(1 0 0 1 317.66 714.16)" class="st1 st4 st16 st11">ERIENCE</text>
<path class="st1" d="M337.1,745.1c0,1.1-0.9,2-2,2s-2-0.9-2-2s0.9-2,2-2S337.1,744,337.1,745.1z"/>
<text transform="matrix(1 0 0 1 344.51 749.16)" class="st17 st4 st18">L</text>
<text transform="matrix(1 0 0 1 350.65 749.16)" class="st17 st4 st18">e</text>
<text transform="matrix(1 0 0 1 356.96 749.16)" class="st17 st4 st18">a</text>
<text transform="matrix(1 0 0 1 363.27 749.16)" class="st17 st4 st18">r</text>
<text transform="matrix(1 0 0 1 367.64 749.16)" class="st17 st4 st18">n</text>
<text transform="matrix(1 0 0 1 374.78 749.16)" class="st17 st4 st18">c</text>
<text transform="matrix(1 0 0 1 380.79 749.16)" class="st17 st4 st18">hamp </text>
<text transform="matrix(1 0 0 1 414.87 749.16)" class="st17 st4 st18">C</text>
<text transform="matrix(1 0 0 1 422.18 749.16)" class="st17 st4 st18">onsu</text>
<text transform="matrix(1 0 0 1 448.43 749.16)" class="st17 st4 st18">l</text>
<text transform="matrix(1 0 0 1 451.91 749.16)" class="st17 st4 st18">ti</text>
<text transform="matrix(1 0 0 1 459.44 749.16)" class="st17 st4 st18">n</text>
<text transform="matrix(1 0 0 1 466.58 749.16)" class="st17 st4 st18">g GmbH</text>
<text transform="matrix(1 0 0 1 344.51 763.12)" class="st17 st19 st22">C</text>
<text transform="matrix(1 0 0 1 351.03 763.12)" class="st17 st19 st22">on</text>
<text transform="matrix(1 0 0 1 363.28 763.12)" class="st17 st19 st22">t</text>
<text transform="matrix(1 0 0 1 366.97 763.12)" class="st17 st19 st22">ent </text>
<text transform="matrix(1 0 0 1 385.35 763.12)" class="st17 st19 st22">P</text>
<text transform="matrix(1 0 0 1 391.89 763.12)" class="st17 st19 st22">r</text>
<text transform="matrix(1 0 0 1 395.6 763.12)" class="st17 st19 st22">odu</text>
<text transform="matrix(1 0 0 1 414.15 763.12)" class="st17 st19 st22">c</text>
<text transform="matrix(1 0 0 1 419.39 763.12)" class="st17 st19 st22">er</text>
<text transform="matrix(1 0 0 1 344.51 777.08)" class="st17 st19 st22">L</text>
<text transform="matrix(1 0 0 1 349.97 777.08)" class="st17 st19 st22">ocali</text>
<text transform="matrix(1 0 0 1 371.95 777.08)" class="st17 st19 st22">z</text>
<text transform="matrix(1 0 0 1 376.73 777.08)" class="st17 st19 st22">er</text>
<text transform="matrix(1 0 0 1 344.51 791.04)" class="st17 st19 st22">G</text>
<text transform="matrix(1 0 0 1 351.69 791.04)" class="st17 st19 st22">r</text>
<text transform="matrix(1 0 0 1 355.44 791.04)" class="st17 st19 st22">aphics edi</text>
<text transform="matrix(1 0 0 1 403.4 791.04)" class="st17 st19 st22">t</text>
<text transform="matrix(1 0 0 1 407.08 791.04)" class="st17 st19 st22">or</text>
<text transform="matrix(1 0 0 1 276.27 522.12)" class="st1 st20 st21">2012 - 2019</text>
<text transform="matrix(1 0 0 1 285.1 425.61)" class="st1 st4 st16 st11">EDU</text>
<text transform="matrix(1 0 0 1 320.49 425.61)" class="st1 st4 st16 st11">C</text>
<text transform="matrix(1 0 0 1 331.7 425.61)" class="st1 st4 st16">A</text>
<text transform="matrix(1 0 0 1 343.08 425.61)" class="st1 st4 st16 st11">TION</text>
<text transform="matrix(1 0 0 1 344.51 522.59)" class="st17 st4 st18">Uni</text>
<text transform="matrix(1 0 0 1 362.73 522.59)" class="st17 st4 st18">v</text>
<text transform="matrix(1 0 0 1 368.7 522.59)" class="st17 st4 st18">e</text>
<text transform="matrix(1 0 0 1 375.16 522.59)" class="st17 st4 st18">r</text>
<text transform="matrix(1 0 0 1 379.55 522.59)" class="st17 st4 st18">si</text>
<text transform="matrix(1 0 0 1 388.07 522.59)" class="st17 st4 st18">t</text>
<text transform="matrix(1 0 0 1 392.42 522.59)" class="st17 st4 st18">y of </text>
<text transform="matrix(1 0 0 1 415 522.59)" class="st17 st4 st18">V</text>
<text transform="matrix(1 0 0 1 422.58 522.59)" class="st17 st4 st18">ienna</text>
<text transform="matrix(1 0 0 1 344.51 537.48)" class="st17 st19 st22">B</text>
<text transform="matrix(1 0 0 1 351.55 537.48)" class="st17 st19 st22">a</text>
<text transform="matrix(1 0 0 1 357.15 537.48)" class="st17 st19 st22">c</text>
<text transform="matrix(1 0 0 1 362.4 537.48)" class="st17 st19 st22">h</text>
<text transform="matrix(1 0 0 1 368.76 537.48)" class="st17 st19 st22">elor Ge</text>
<text transform="matrix(1 0 0 1 402.16 537.48)" class="st17 st19 st22">r</text>
<text transform="matrix(1 0 0 1 405.91 537.48)" class="st17 st19 st22">man Philology</text>
<path class="st1" d="M337.1,518.6c0,1.1-0.9,2-2,2s-2-0.9-2-2s0.9-2,2-2S337.1,517.5,337.1,518.6z"/>
<text transform="matrix(1 0 0 1 277.27 575.33)" class="st1 st20 st21">2002 </text>
<text transform="matrix(1 0 0 1 301.9 575.33)" class="st1 st20 st23">- </text>
<text transform="matrix(1 0 0 1 307.44 575.33)" class="st1 st20 st21">2011</text>
<path class="st1" d="M337.1,571.8c0,1.1-0.9,2-2,2s-2-0.9-2-2s0.9-2,2-2S337.1,570.7,337.1,571.8z"/>
<text transform="matrix(1 0 0 1 344.51 575.81)" class="st17 st4 st18">K</text>
<text transform="matrix(1 0 0 1 351.98 575.81)" class="st17 st4 st18">r</text>
<text transform="matrix(1 0 0 1 356.3 575.81)" class="st17 st4 st18">euzs</text>
<text transform="matrix(1 0 0 1 380.79 575.81)" class="st17 st4 st18">c</text>
<text transform="matrix(1 0 0 1 386.8 575.81)" class="st17 st4 st18">h</text>
<text transform="matrix(1 0 0 1 393.77 575.81)" class="st17 st4 st18">w</text>
<text transform="matrix(1 0 0 1 403.21 575.81)" class="st17 st4 st18">es</text>
<text transform="matrix(1 0 0 1 415.1 575.81)" class="st17 st4 st18">t</text>
<text transform="matrix(1 0 0 1 419.38 575.81)" class="st17 st4 st18">e</text>
<text transform="matrix(1 0 0 1 425.84 575.81)" class="st17 st4 st18">r</text>
<text transform="matrix(1 0 0 1 430.21 575.81)" class="st17 st4 st18">ns</text>
<text transform="matrix(1 0 0 1 442.72 575.81)" class="st17 st4 st18">c</text>
<text transform="matrix(1 0 0 1 448.73 575.81)" class="st17 st4 st18">hule Linz</text>
<text transform="matrix(1 0 0 1 344.51 590.7)" class="st17 st19 st22">f</text>
<text transform="matrix(1 0 0 1 348.54 590.7)" class="st17 st19 st22">r</text>
<text transform="matrix(1 0 0 1 352.24 590.7)" class="st17 st19 st22">om </text>
<text transform="matrix(1 0 0 1 370.49 590.7)" class="st17 st19 st22">2</text>
<text transform="matrix(1 0 0 1 375.8 590.7)" class="st17 st19 st22">006: H</text>
<text transform="matrix(1 0 0 1 406.13 590.7)" class="st17 st19 st22">L</text>
<text transform="matrix(1 0 0 1 411.18 590.7)" class="st17 st19 st22">W für </text>
<text transform="matrix(1 0 0 1 440.06 590.7)" class="st17 st19 st22">K</text>
<text transform="matrix(1 0 0 1 446.54 590.7)" class="st17 st19 st22">ommuni</text>
<text transform="matrix(1 0 0 1 487.35 590.7)" class="st17 st19 st22">k</text>
<text transform="matrix(1 0 0 1 492.99 590.7)" class="st17 st19 st22">ations- u</text>
<text transform="matrix(1 0 0 1 534.28 590.7)" class="st17 st19 st22">n</text>
<text transform="matrix(1 0 0 1 540.65 590.7)" class="st17 st19 st22">d </text>
<text transform="matrix(1 0 0 1 344.51 601.87)" class="st17 st19 st22">Medie</text>
<text transform="matrix(1 0 0 1 373.73 601.87)" class="st17 st19 st22">n</text>
<text transform="matrix(1 0 0 1 380.09 601.87)" class="st17 st19 st22">design</text>
<text transform="matrix(1 0 0 1 344.51 616.76)" class="st17 st19 st22">until </text>
<text transform="matrix(1 0 0 1 368.7 616.76)" class="st17 st19 st22">2</text>
<text transform="matrix(1 0 0 1 374.01 616.76)" class="st17 st19 st22">006: </text>
<text transform="matrix(1 0 0 1 396.78 616.76)" class="st17 st19 st22">W</text>
<text transform="matrix(1 0 0 1 407.13 616.76)" class="st17 st19 st22">i</text>
<text transform="matrix(1 0 0 1 409.72 616.76)" class="st17 st19 st22">r</text>
<text transform="matrix(1 0 0 1 413.68 616.76)" class="st17 st19 st22">ts</text>
<text transform="matrix(1 0 0 1 422.19 616.76)" class="st17 st19 st22">c</text>
<text transform="matrix(1 0 0 1 427.44 616.76)" class="st17 st19 st22">haftli</text>
<text transform="matrix(1 0 0 1 451.68 616.76)" class="st17 st19 st22">c</text>
<text transform="matrix(1 0 0 1 456.92 616.76)" class="st17 st19 st22">h</text>
<text transform="matrix(1 0 0 1 463.29 616.76)" class="st17 st19 st22">es R</text>
<text transform="matrix(1 0 0 1 482.91 616.76)" class="st17 st19 st22">e</text>
<text transform="matrix(1 0 0 1 488.47 616.76)" class="st17 st19 st22">algymnasium</text>
<text transform="matrix(1 0 0 1 245.38 456.27)" class="st1 st20 st21">09/2020 - 12/2020</text>
<path class="st1" d="M337.1,452.7c0,1.1-0.9,2-2,2s-2-0.9-2-2s0.9-2,2-2S337.1,451.6,337.1,452.7z"/>
<text transform="matrix(1 0 0 1 344.51 456.75)" class="st17 st4 st18">C</text>
<text transform="matrix(1 0 0 1 351.82 456.75)" class="st17 st4 st18">ode</text>
<text transform="matrix(1 0 0 1 372.07 456.75)" class="st17 st4 st18">f</text>
<text transform="matrix(1 0 0 1 375.93 456.75)" class="st17 st4 st18">a</text>
<text transform="matrix(1 0 0 1 382.3 456.75)" class="st17 st4 st18">c</text>
<text transform="matrix(1 0 0 1 388.43 456.75)" class="st17 st4 st18">t</text>
<text transform="matrix(1 0 0 1 392.71 456.75)" class="st17 st4 st18">o</text>
<text transform="matrix(1 0 0 1 399.42 456.75)" class="st17 st4 st18">r</text>
<text transform="matrix(1 0 0 1 403.98 456.75)" class="st17 st4 st18">y </text>
<text transform="matrix(1 0 0 1 413 456.75)" class="st17 st4 st18">V</text>
<text transform="matrix(1 0 0 1 420.59 456.75)" class="st17 st4 st18">ienna</text>
<text transform="matrix(1 0 0 1 344.51 471.64)" class="st17 st19 st22">G</text>
<text transform="matrix(1 0 0 1 351.7 471.64)" class="st17 st19 st22">r</text>
<text transform="matrix(1 0 0 1 355.44 471.64)" class="st17 st19 st22">a</text>
<text transform="matrix(1 0 0 1 361.04 471.64)" class="st17 st19 st22">dua</text>
<text transform="matrix(1 0 0 1 379.26 471.64)" class="st17 st19 st22">t</text>
<text transform="matrix(1 0 0 1 382.94 471.64)" class="st17 st19 st22">ed with Summa </text>
<text transform="matrix(1 0 0 1 461 471.64)" class="st17 st19 st22">C</text>
<text transform="matrix(1 0 0 1 467.57 471.64)" class="st17 st19 st22">um </text>
<text transform="matrix(1 0 0 1 486.22 471.64)" class="st17 st19 st22">L</text>
<text transform="matrix(1 0 0 1 491.77 471.64)" class="st17 st19 st22">aude </text>
<text transform="matrix(1 0 0 1 518.19 471.64)" class="st17 st19 st22">f</text>
<text transform="matrix(1 0 0 1 522.23 471.64)" class="st17 st19 st22">r</text>
<text transform="matrix(1 0 0 1 525.93 471.64)" class="st17 st19 st22">om  </text>
<text transform="matrix(1 0 0 1 344.51 482.82)" class="st17 st19 st22">F</text>
<text transform="matrix(1 0 0 1 350.26 482.82)" class="st17 st19 st22">ull</text>
<text transform="matrix(1 0 0 1 361.76 482.82)" class="st17 st19 st22">-</text>
<text transform="matrix(1 0 0 1 365.17 482.82)" class="st17 st19 st22">St</text>
<text transform="matrix(1 0 0 1 374.8 482.82)" class="st17 st19 st22">a</text>
<text transform="matrix(1 0 0 1 380.4 482.82)" class="st17 st19 st22">c</text>
<text transform="matrix(1 0 0 1 385.65 482.82)" class="st17 st19 st22">k-</text>
<text transform="matrix(1 0 0 1 394.52 482.82)" class="st17 st19 st22">W</text>
<text transform="matrix(1 0 0 1 404.5 482.82)" class="st17 st19 st22">eb D</text>
<text transform="matrix(1 0 0 1 426.74 482.82)" class="st17 st19 st22">e</text>
<text transform="matrix(1 0 0 1 432.34 482.82)" class="st17 st19 st22">v</text>
<text transform="matrix(1 0 0 1 437.4 482.82)" class="st17 st19 st22">eloper </text>
<text transform="matrix(1 0 0 1 469.98 482.82)" class="st17 st19 st22">C</text>
<text transform="matrix(1 0 0 1 476.51 482.82)" class="st17 st19 st22">ou</text>
<text transform="matrix(1 0 0 1 488.72 482.82)" class="st17 st19 st22">r</text>
<text transform="matrix(1 0 0 1 492.51 482.82)" class="st17 st19 st22">se</text>
<text transform="matrix(1 0 0 1 274.27 655.34)" class="st1 st20 st21">1998 </text>
<text transform="matrix(1 0 0 1 296.93 655.34)" class="st1 st20 st23">- </text>
<text transform="matrix(1 0 0 1 302.46 655.34)" class="st1 st20 st21">2002</text>
<path class="st1" d="M337.1,651.8c0,1.1-0.9,2-2,2s-2-0.9-2-2s0.9-2,2-2S337.1,650.7,337.1,651.8z"/>
<text transform="matrix(1 0 0 1 344.51 655.82)" class="st17 st4 st18">Ele</text>
<text transform="matrix(1 0 0 1 360.92 655.82)" class="st17 st4 st18">m</text>
<text transform="matrix(1 0 0 1 371.72 655.82)" class="st17 st4 st18">enta</text>
<text transform="matrix(1 0 0 1 396.02 655.82)" class="st17 st4 st18">r</text>
<text transform="matrix(1 0 0 1 400.58 655.82)" class="st17 st4 st18">y S</text>
<text transform="matrix(1 0 0 1 416.13 655.82)" class="st17 st4 st18">c</text>
<text transform="matrix(1 0 0 1 422.14 655.82)" class="st17 st4 st18">h</text>
<text transform="matrix(1 0 0 1 429.28 655.82)" class="st17 st4 st18">ool of </text>
<text transform="matrix(1 0 0 1 462.23 655.82)" class="st17 st4 st18">L</text>
<text transform="matrix(1 0 0 1 468.37 655.82)" class="st17 st4 st18">eo</text>
<text transform="matrix(1 0 0 1 481.53 655.82)" class="st17 st4 st18">n</text>
<text transform="matrix(1 0 0 1 488.67 655.82)" class="st17 st4 st18">di</text>
<text transform="matrix(1 0 0 1 498.83 655.82)" class="st17 st4 st18">n</text>
<text transform="matrix(1 0 0 1 505.97 655.82)" class="st17 st4 st18">g</text>
<text transform="matrix(1 0 0 1 35.84 322.51)" class="st1 st4 st16 st11">C</text>
<text transform="matrix(1 0 0 1 47.04 322.51)" class="st1 st4 st16 st11">ON</text>
<text transform="matrix(1 0 0 1 72.39 322.51)" class="st1 st4 st16">T</text>
<text transform="matrix(1 0 0 1 81.74 322.51)" class="st1 st4 st16 st11">A</text>
<text transform="matrix(1 0 0 1 93.46 322.51)" class="st1 st4 st16 st11">C</text>
<text transform="matrix(1 0 0 1 104.77 322.51)" class="st1 st4 st16 st11">T</text>
<text transform="matrix(1 0 0 1 57.67 349.99)" class="st17 st24 st23">Thaliast</text>
<text transform="matrix(1 0 0 1 90.03 349.99)" class="st17 st24 st23">r</text>
<text transform="matrix(1 0 0 1 93.32 349.99)" class="st17 st24 st23">aße </text>
<text transform="matrix(1 0 0 1 111.1 349.99)" class="st17 st24 st23">5</text>
<text transform="matrix(1 0 0 1 115.8 349.99)" class="st17 st24 st23">3, 1160 </text>
<text transform="matrix(1 0 0 1 143.38 349.99)" class="st17 st24 st23">V</text>
<text transform="matrix(1 0 0 1 149.08 349.99)" class="st17 st24 st23">ienna</text>
<text transform="matrix(1 0 0 1 57.67 380.96)" class="st17 st24 st23">+</text>
<text transform="matrix(1 0 0 1 62.55 380.96)" class="st17 st24 st23">4</text>
<text transform="matrix(1 0 0 1 67.96 380.96)" class="st17 st24 st23">3 699 10 </text>
<text transform="matrix(1 0 0 1 103.14 380.96)" class="st17 st24 st23">3</text>
<text transform="matrix(1 0 0 1 107.75 380.96)" class="st17 st24 st23">7 </text>
<text transform="matrix(1 0 0 1 114.88 380.96)" class="st17 st24 st23">2</text>
<text transform="matrix(1 0 0 1 119.61 380.96)" class="st17 st24 st23">6 29</text>
<text transform="matrix(1 0 0 1 57.67 410.51)" class="st17 st24 st23">s</text>
<text transform="matrix(1 0 0 1 61.77 410.51)" class="st17 st24 st23">t</text>
<text transform="matrix(1 0 0 1 65.01 410.51)" class="st17 st24 st23">ephan@h</text>
<text transform="matrix(1 0 0 1 106.35 410.51)" class="st17 st24 st23">a</text>
<text transform="matrix(1 0 0 1 111.31 410.51)" class="st17 st24 st23">dits</text>
<text transform="matrix(1 0 0 1 126.73 410.51)" class="st17 st24 st23">c</text>
<text transform="matrix(1 0 0 1 131.38 410.51)" class="st17 st24 st23">h</text>
<text transform="matrix(1 0 0 1 137.05 410.51)" class="st17 st24 st23">.</text>
<text transform="matrix(1 0 0 1 138.7 410.51)" class="st17 st24 st23">d</text>
<text transform="matrix(1 0 0 1 144.38 410.51)" class="st17 st24 st23">e</text>
<text transform="matrix(1 0 0 1 149.35 410.51)" class="st17 st24 st23">v</text>
<path d="M42.7,430.1c-3.9,0-7.1,3.2-7.1,7.1s3.2,7.1,7.1,7.1s7.1-3.2,7.1-7.1l0,0C49.8,433.3,46.6,430.1,42.7,430.1z M40.8,440.6
	h-1.6v-5h1.6V440.6z M40,435c-0.5,0-0.9-0.5-0.9-1c0-0.5,0.5-0.9,1-0.9c0.5,0,0.8,0.4,0.9,0.9c0,0.5-0.3,1-0.9,1
	C40.1,435,40,435,40,435z M46.6,440.7h-1.5V438c0-0.7-0.3-1.1-0.8-1.1s-0.9,0.4-0.9,1.1v2.6h-1.5v-5h1.5v0.7
	c0.3-0.5,0.9-0.8,1.5-0.8c1-0.1,1.8,0.7,1.8,1.6c0,0.1,0,0.2,0,0.4L46.6,440.7L46.6,440.7z"/>
<image style="overflow:visible;enable-background:new    ;" width="2838" height="2838" xlink:href="../../../../../../../../../_Arbeit/CV 2021/_Fotos/CV-Portrait.jpg"  transform="matrix(9.479211e-02 0 0 9.479211e-02 286.98 117)">
</image>
<text transform="matrix(1 0 0 1 125.62 395.33)" class="st19 st25">Lorem ipsum</text>
<text transform="matrix(1 0 0 1 57.67 439.69)" class="st17 st24 st23">lin</text>
<text transform="matrix(1 0 0 1 67.85 439.69)" class="st17 st24 st23">k</text>
<text transform="matrix(1 0 0 1 72.7 439.69)" class="st17 st24 st23">edin</text>
<text transform="matrix(1 0 0 1 91.36 439.69)" class="st17 st24 st23">.</text>
<text transform="matrix(1 0 0 1 93.01 439.69)" class="st17 st24 st23">c</text>
<text transform="matrix(1 0 0 1 97.65 439.69)" class="st17 st24 st23">om</text>
<text transform="matrix(1 0 0 1 111.79 439.69)" class="st17 st24 st23">/</text>
<text transform="matrix(1 0 0 1 114.64 439.69)" class="st17 st24 st23">in</text>
<text transform="matrix(1 0 0 1 122.56 439.69)" class="st17 st24 st23">/</text>
<text transform="matrix(1 0 0 1 124.8 439.69)" class="st17 st24 st23">s-h</text>
<text transform="matrix(1 0 0 1 137.76 439.69)" class="st17 st24 st23">a</text>
<text transform="matrix(1 0 0 1 142.72 439.69)" class="st17 st24 st23">dits</text>
<text transform="matrix(1 0 0 1 158.15 439.69)" class="st17 st24 st23">c</text>
<text transform="matrix(1 0 0 1 162.8 439.69)" class="st17 st24 st23">h</text>
<text transform="matrix(1 0 0 1 122.96 368.37)" class="st19 st25">Lorem ipsum</text>
<text transform="matrix(1 0 0 1 57.67 500.34)" class="st17 st24 st23">h</text>
<text transform="matrix(1 0 0 1 63.34 500.34)" class="st17 st24 st23">a</text>
<text transform="matrix(1 0 0 1 68.3 500.34)" class="st17 st24 st23">dits</text>
<text transform="matrix(1 0 0 1 83.73 500.34)" class="st17 st24 st23">c</text>
<text transform="matrix(1 0 0 1 88.37 500.34)" class="st17 st24 st23">h</text>
<text transform="matrix(1 0 0 1 94.04 500.34)" class="st17 st24 st23">.</text>
<text transform="matrix(1 0 0 1 95.69 500.34)" class="st17 st24 st23">d</text>
<text transform="matrix(1 0 0 1 101.37 500.34)" class="st17 st24 st23">e</text>
<text transform="matrix(1 0 0 1 106.35 500.34)" class="st17 st24 st23">v</text>
<polygon class="st0" points="556,117 556,297 544.3,297 544.3,128.6 298.6,128.6 298.6,297 287,297 287,117 "/>
<polygon class="st1" points="556,297 556,386 287,386 287,297 298.6,297 298.6,374.4 544.3,374.4 544.3,297 "/>
<text transform="matrix(1 0 0 1 57.67 469.78)" class="st17 st24 st23">githu</text>
<text transform="matrix(1 0 0 1 80.38 469.78)" class="st17 st24 st23">b.</text>
<text transform="matrix(1 0 0 1 87.58 469.78)" class="st17 st24 st23">c</text>
<text transform="matrix(1 0 0 1 92.22 469.78)" class="st17 st24 st23">om/H</text>
<text transform="matrix(1 0 0 1 115.97 469.78)" class="st17 st24 st23">a</text>
<text transform="matrix(1 0 0 1 120.93 469.78)" class="st17 st24 st23">dits</text>
<text transform="matrix(1 0 0 1 136.36 469.78)" class="st17 st24 st23">c</text>
<text transform="matrix(1 0 0 1 141 469.78)" class="st17 st24 st23">h</text>
<path d="M47.9,372.9c-2.8-2.8-7.3-2.8-10,0c-2.8,2.8-2.8,7.3,0,10c2.8,2.8,7.3,2.8,10,0c1.3-1.3,2.1-3.1,2.1-5
	C50,376,49.3,374.2,47.9,372.9z M46.6,380.7L46.6,380.7l-0.4,0.4c-0.5,0.5-1.1,0.7-1.8,0.5c-0.6-0.2-1.3-0.4-1.8-0.8
	c-0.5-0.3-1-0.7-1.4-1.2c-0.4-0.4-0.8-0.8-1.1-1.3c-0.3-0.5-0.6-1.1-0.8-1.6c-0.2-0.7,0-1.4,0.5-1.9l0.4-0.4c0.1-0.1,0.3-0.1,0.4,0
	l0,0l1.3,1.3c0.1,0.1,0.1,0.3,0,0.4c0,0,0,0,0,0l0,0l-0.8,0.8c-0.2,0.2-0.2,0.6-0.1,0.8c0.3,0.4,0.6,0.8,0.9,1.1
	c0.4,0.4,0.8,0.7,1.2,1c0.3,0.2,0.6,0.1,0.8-0.1l0.8-0.8c0.1-0.1,0.3-0.1,0.4,0c0,0,0,0,0,0l0,0l1.3,1.3
	C46.7,380.4,46.7,380.6,46.6,380.7C46.6,380.7,46.6,380.7,46.6,380.7z"/>
<path d="M42.7,341.5c-3.7,0-6.6,3-6.6,6.6s3,6.6,6.6,6.6s6.6-3,6.6-6.6S46.4,341.5,42.7,341.5L42.7,341.5z M41.6,347.3
	c0-0.6,0.5-1.1,1.1-1.1c0.6,0,1.2,0.5,1.2,1.1c0,0.6-0.5,1.1-1.1,1.1h0C42.1,348.4,41.6,347.9,41.6,347.3z"/>
<path class="st0" d="M45.9,348.5c-0.1,0.3-0.3,0.6-0.5,0.8l-2.4,2.9c-0.1,0.1-0.1,0.1-0.2,0.1c-0.1,0-0.2,0-0.2-0.1l-2.4-2.9
	c-0.2-0.2-0.4-0.5-0.5-0.8c-0.4-1-0.2-2.2,0.4-3.1c1.1-1.5,3.1-1.9,4.7-0.9c0.3,0.2,0.6,0.5,0.9,0.9
	C46.2,346.3,46.3,347.4,45.9,348.5z"/>
<path class="st0" d="M42.7,346.1c-0.7,0-1.2,0.5-1.2,1.2s0.5,1.2,1.2,1.2s1.2-0.5,1.2-1.2c0,0,0,0,0,0
	C43.9,346.6,43.4,346.1,42.7,346.1z M42.7,348.4c-0.6,0-1.1-0.5-1.1-1.2c0-0.6,0.5-1.1,1.1-1.1c0.6,0,1.1,0.5,1.1,1.2
	C43.9,347.9,43.4,348.4,42.7,348.4z"/>
<path d="M44.2,347.3c0,0.8-0.7,1.5-1.5,1.5c-0.8,0-1.5-0.7-1.5-1.5c0-0.8,0.7-1.5,1.5-1.5c0,0,0,0,0,0
	C43.5,345.8,44.2,346.5,44.2,347.3z"/>
<circle cx="43.2" cy="497.3" r="7.1"/>
<path class="st0" d="M47,493.5c-2.1-2.1-5.5-2.1-7.6,0c-2.1,2.1-2.1,5.5,0,7.6c2.1,2.1,5.5,2.1,7.6,0C49.1,499,49.1,495.6,47,493.5
	C47,493.5,47,493.5,47,493.5z M46.8,500.3c-0.2-0.2-0.5-0.4-0.8-0.6c0.2-0.7,0.3-1.4,0.3-2.1h1.6C47.8,498.6,47.4,499.6,46.8,500.3z
	 M38.5,497.6h1.6c0,0.7,0.1,1.4,0.3,2.1c-0.3,0.2-0.6,0.4-0.8,0.6C39,499.6,38.6,498.6,38.5,497.6L38.5,497.6z M39.6,494.3
	c0.3,0.2,0.5,0.4,0.8,0.6c-0.2,0.7-0.3,1.4-0.3,2.1h-1.6C38.6,496,38.9,495,39.6,494.3L39.6,494.3z M42.9,494.9
	c-0.6,0-1.1-0.2-1.6-0.4c0.2-0.8,0.8-1.5,1.6-1.9V494.9z M42.9,495.6v1.4h-2.1c0-0.6,0.1-1.2,0.3-1.8
	C41.6,495.5,42.2,495.6,42.9,495.6L42.9,495.6z M42.9,497.6v1.4c-0.6,0-1.2,0.2-1.8,0.4c-0.2-0.6-0.2-1.2-0.3-1.8L42.9,497.6z
	 M42.9,499.6v2.4c-0.8-0.4-1.4-1-1.6-1.9C41.7,499.9,42.3,499.7,42.9,499.6L42.9,499.6z M43.5,499.6c0.6,0,1.1,0.2,1.6,0.4
	c-0.2,0.8-0.8,1.5-1.6,1.9V499.6z M43.5,498.9v-1.3h2.1c0,0.6-0.1,1.2-0.3,1.8C44.8,499.1,44.2,499,43.5,498.9z M43.5,496.9v-1.4
	c0.6,0,1.2-0.2,1.8-0.4c0.1,0.6,0.2,1.2,0.3,1.8H43.5z M43.5,494.9v-2.3c0.8,0.4,1.4,1,1.6,1.9C44.6,494.7,44.1,494.9,43.5,494.9
	L43.5,494.9z M45,493c0.4,0.2,0.9,0.5,1.2,0.8c-0.2,0.2-0.4,0.3-0.5,0.4C45.6,493.8,45.3,493.4,45,493z M40.6,494.2
	c-0.2-0.1-0.4-0.3-0.5-0.4c0.4-0.3,0.8-0.6,1.2-0.8C41,493.4,40.8,493.8,40.6,494.2z M40.6,500.4c0.2,0.4,0.4,0.8,0.7,1.2
	c-0.4-0.2-0.9-0.5-1.2-0.8C40.2,500.7,40.4,500.5,40.6,500.4L40.6,500.4z M45.7,500.4c0.2,0.1,0.4,0.3,0.5,0.4
	c-0.4,0.3-0.8,0.6-1.2,0.8C45.3,501.2,45.6,500.8,45.7,500.4z M46.3,497c0-0.7-0.1-1.4-0.3-2.1c0.3-0.2,0.5-0.4,0.8-0.6
	c0.6,0.8,1,1.7,1.1,2.7H46.3z"/>
<path d="M43.2,460.2c-4-0.1-7.3,3.1-7.4,7.1c-0.1,3.2,2,6.1,5.1,7.1c0.4,0.1,0.5-0.1,0.5-0.4s0-0.6,0-1.2c-2,0.4-2.5-1-2.5-1
	c-0.1-0.4-0.4-0.8-0.8-1.1c-0.7-0.5,0-0.4,0-0.4c0.5,0.1,0.9,0.3,1.1,0.8c0.4,0.8,1.4,1,2.2,0.6c0-0.4,0.2-0.7,0.5-1
	c-1.7-0.2-3.4-0.8-3.4-3.6c0-0.7,0.3-1.5,0.8-2c-0.2-0.6-0.2-1.3,0.1-1.9c0,0,0.6-0.2,2,0.7c1.2-0.3,2.5-0.3,3.7,0
	c1.4-0.9,2-0.7,2-0.7c0.3,0.6,0.3,1.3,0.1,1.9c0.5,0.5,0.8,1.3,0.8,2c0,2.8-1.7,3.4-3.4,3.6c0.4,0.4,0.5,0.8,0.5,1.4c0,1,0,1.8,0,2
	s0.1,0.4,0.5,0.3c3-1,5.1-3.7,5.1-6.9C50.5,463.4,47.3,460.2,43.2,460.2z"/>
<circle cx="42.9" cy="407.6" r="7.1"/>
<path class="st0" d="M47.1,404h-8.4c-0.5,0-0.9,0.4-0.9,0.9v5.4c0,0.5,0.4,0.9,0.9,0.9h8.4c0.5,0,0.9-0.4,0.9-0.9l0,0V405
	C48,404.5,47.6,404.1,47.1,404C47.1,404.1,47.1,404.1,47.1,404z M47,404.6l-3.4,3.4c-0.3,0.3-0.9,0.3-1.3,0c0,0,0,0,0,0l-3.4-3.4H47
	z M38.5,410.2v-5.1l2.5,2.5L38.5,410.2z M38.9,410.6l2.6-2.6l0.4,0.4c0.6,0.6,1.5,0.6,2.1,0l0.4-0.4l2.6,2.6H38.9z M47.4,410.2
	l-2.6-2.6l2.6-2.5V410.2z"/>
</svg>
