<svg id="Layer_1" data-name="Layer 1" xmlns="http://www.w3.org/2000/svg" xmlns:xlink="http://www.w3.org/1999/xlink" viewBox="0 0 1317.95 267.6"><defs><linearGradient id="linear-gradient" x1="-4031.24" y1="-453.48" x2="-4031.24" y2="-433.5" gradientTransform="matrix(0.69, 0, 0, -0.69, 3429.49, -303.91)" gradientUnits="userSpaceOnUse"><stop offset="0" stop-opacity="0"/><stop offset="0.48" stop-color="#fff"/><stop offset="1" stop-opacity="0"/></linearGradient><clipPath id="clip-path"><rect y="-475.11" width="1317.95" height="742.71" style="fill:none"/></clipPath><linearGradient id="linear-gradient-2" x1="-4996.08" y1="45.24" x2="6938.03" y2="45.24" gradientTransform="matrix(0.69, 0, 0, -0.69, -7.53, 164.86)" gradientUnits="userSpaceOnUse"><stop offset="0.44" stop-color="aqua"/><stop offset="0.57" stop-color="#9f00e7"/></linearGradient><linearGradient id="linear-gradient-3" x1="-4664.58" y1="45.06" x2="6606.53" y2="45.06" xlink:href="#linear-gradient-2"/><mask id="mask" x="-8.82" y="-6.34" width="1342.27" height="13.71" maskUnits="userSpaceOnUse"><g id="mask-2" data-name="mask"><rect x="-8.81" y="-6.34" width="1342.26" height="13.71" style="fill:url(#linear-gradient)"/></g></mask><linearGradient id="linear-gradient-4" x1="-1.87" y1="239.42" x2="1953.54" y2="239.42" gradientTransform="matrix(0.69, 0, 0, -0.69, -7.53, 164.86)" gradientUnits="userSpaceOnUse"><stop offset="0.46" stop-color="#d9ffff"/><stop offset="0.54" stop-color="#dcc4e7"/></linearGradient><linearGradient id="linear-gradient-5" x1="-4996.04" y1="45.24" x2="6938" y2="45.24" gradientTransform="matrix(0.69, 0, 0, -0.69, -7.53, 164.86)" gradientUnits="userSpaceOnUse"><stop offset="0" stop-color="#fff" stop-opacity="0"/><stop offset="0.5" stop-color="#fff"/><stop offset="1" stop-color="#fff" stop-opacity="0"/></linearGradient><linearGradient id="linear-gradient-6" x1="-4664.55" y1="45.18" x2="6606.5" y2="45.18" xlink:href="#linear-gradient-5"/></defs><title>grid_with_horizon</title><g id="Layer_2" data-name="Layer 2"><g id="Layer_27" data-name="Layer 27"><g style="clip-path:url(#clip-path)"><polygon points="40.49 0.7 1277.46 0.7 4754.92 266.92 -3436.97 266.92 40.49 0.7" style="fill:none;stroke-miterlimit:6.864334344863892;stroke-width:1.3728668689727783px;stroke:url(#linear-gradient-2)"/><polyline points="-933.89 266.92 418.45 0.7 384.09 0.7 -1161.44 266.92 -1389 266.92 349.73 0.7 315.37 0.7 -1616.55 266.92 -3209.42 266.92 74.85 0.7 109.2 0.7 -2981.87 266.92 -2883.68 224.56 4201.63 224.56 4299.82 266.92 1208.74 0.7 1174.38 0.7 4072.27 266.92 3617.16 266.92 1105.66 0.7 1140.02 0.7 3844.71 266.92 3780.02 192.28 -2462.08 192.28 -2526.76 266.92 177.92 0.7 212.29 0.7 -2299.21 266.92 -2754.31 266.92 143.57 0.7 25.55 1.85 1292.4 1.85 1308.07 3.05 9.87 3.05 -6.6 4.31 1324.55 4.31 1341.88 5.64 -23.94 5.64 -42.2 7.03 1360.14 7.03 1379.4 8.51 -61.46 8.51 -81.8 10.06 1399.75 10.06 1421.28 11.71 -103.34 11.71 -126.16 13.46 1444.11 13.46 1468.34 15.32 -150.39 15.32 -176.17 17.29 1494.11 17.29 1521.58 19.39 -203.63 19.39 -232.97 21.64 1550.91 21.64 1582.32 24.04 -264.37 24.04 -298.07 26.62 1616.02 26.62 1652.27 29.39 -334.31 29.39 -373.42 32.39 1691.37 32.39 1733.67 35.63 -415.73 35.63 -461.65 39.14 1779.59 39.14 1829.61 42.97 -511.67 42.97 -566.36 47.16 1884.31 47.16 1944.36 51.76 -626.42 51.76 -692.67 56.83 2010.61 56.83 2084.06 62.45 -766.12 62.45 -848.01 68.72 2165.95 68.72 2257.82 75.75 -939.88 75.75 -1043.68 83.7 2361.63 83.7 2479.84 92.75 -1161.89 92.75 -1297.75 103.14 2615.7 103.14 2773.47 115.23 -1455.51 115.23 -1640.95 129.42 2958.9 129.42 2934.5 266.92 1002.58 0.7 1036.94 0.7 3162.06 266.92 3179.99 146.35 -1862.04 146.35 -1844.1 266.92 281 0.7 246.65 0.7 -2071.66 266.92 -2130.15 166.87 3448.1 166.87 3389.61 266.92 1071.3 0.7 1243.1 0.7 4527.37 266.92 2706.95 266.92 968.22 0.7 933.86 0.7 2479.4 266.92 2251.84 266.92 899.5 0.7 865.13 0.7 2024.29 266.92 1796.74 266.92 830.78 0.7 796.41 0.7 1569.19 266.92 1341.63 266.92 762.06 0.7 452.81 0.7 -706.34 266.92 -478.79 266.92 487.17 0.7 521.53 0.7 -251.24 266.92 -23.68 266.92 555.89 0.7 590.25 0.7 203.87 266.92 431.42 266.92 624.61 0.7 658.98 0.7 658.98 266.92 886.53 266.92 693.33 0.7 727.7 0.7 1114.08 266.92" style="fill:none;stroke-miterlimit:6.864334344863892;stroke-width:1.3728668689727783px;stroke:url(#linear-gradient-3)"/><g style="mask:url(#mask)"><rect x="-8.82" y="-6.34" width="1342.26" height="13.71" style="fill:url(#linear-gradient-4)"/></g><polygon points="40.49 0.7 1277.46 0.7 4754.92 266.92 -3436.97 266.92 40.49 0.7" style="fill:none;stroke-miterlimit:6.864334344863892;stroke-width:0.5148250758647919px;stroke:url(#linear-gradient-5)"/><polyline points="-933.89 266.92 418.45 0.7 384.09 0.7 -1161.44 266.92 -1389 266.92 349.73 0.7 315.37 0.7 -1616.55 266.92 -3209.42 266.92 74.85 0.7 109.2 0.7 -2981.87 266.92 -2883.68 224.56 4201.63 224.56 4299.82 266.92 1208.74 0.7 1174.38 0.7 4072.27 266.92 3617.16 266.92 1105.66 0.7 1140.02 0.7 3844.71 266.92 3780.02 192.28 -2462.08 192.28 -2526.76 266.92 177.92 0.7 212.29 0.7 -2299.21 266.92 -2754.31 266.92 143.57 0.7 25.55 1.85 1292.4 1.85 1308.07 3.05 9.87 3.05 -6.6 4.31 1324.55 4.31 1341.88 5.64 -23.94 5.64 -42.2 7.03 1360.14 7.03 1379.4 8.51 -61.46 8.51 -81.8 10.06 1399.75 10.06 1421.28 11.71 -103.34 11.71 -126.16 13.46 1444.11 13.46 1468.34 15.32 -150.39 15.32 -176.17 17.29 1494.11 17.29 1521.58 19.39 -203.63 19.39 -232.97 21.64 1550.91 21.64 1582.32 24.04 -264.37 24.04 -298.07 26.62 1616.02 26.62 1652.27 29.39 -334.31 29.39 -373.42 32.39 1691.37 32.39 1733.67 35.63 -415.73 35.63 -461.65 39.14 1779.59 39.14 1829.61 42.97 -511.67 42.97 -566.36 47.16 1884.31 47.16 1944.36 51.76 -626.42 51.76 -692.67 56.83 2010.61 56.83 2084.06 62.45 -766.12 62.45 -848.01 68.72 2165.95 68.72 2257.82 75.75 -939.88 75.75 -1043.68 83.7 2361.63 83.7 2479.84 92.75 -1161.89 92.75 -1297.75 103.14 2615.7 103.14 2773.47 115.23 -1455.51 115.23 -1640.95 129.42 2958.9 129.42 2934.5 266.92 1002.58 0.7 1036.94 0.7 3162.06 266.92 3179.99 146.35 -1862.04 146.35 -1844.1 266.92 281 0.7 246.65 0.7 -2071.66 266.92 -2130.15 166.87 3448.1 166.87 3389.61 266.92 1071.3 0.7 1243.1 0.7 4527.37 266.92 2706.95 266.92 968.22 0.7 933.86 0.7 2479.4 266.92 2251.84 266.92 899.5 0.7 865.13 0.7 2024.29 266.92 1796.74 266.92 830.78 0.7 796.41 0.7 1569.19 266.92 1341.63 266.92 762.06 0.7 452.81 0.7 -706.34 266.92 -478.79 266.92 487.17 0.7 521.53 0.7 -251.24 266.92 -23.68 266.92 555.89 0.7 590.25 0.7 203.87 266.92 431.42 266.92 624.61 0.7 658.98 0.7 658.98 266.92 886.53 266.92 693.33 0.7 727.7 0.7 1114.08 266.92" style="fill:none;stroke-miterlimit:6.864334344863892;stroke-width:0.5148250758647919px;stroke:url(#linear-gradient-6)"/></g></g></g></svg>