<svg id="Layer_1" data-name="Layer 1" xmlns="http://www.w3.org/2000/svg" xmlns:xlink="http://www.w3.org/1999/xlink" viewBox="0 0 1317.95 266.2"><defs><linearGradient id="linear-gradient" x1="-4031.24" y1="178.55" x2="-4031.24" y2="344.96" gradientTransform="matrix(0.69, 0, 0, -0.69, 3429.49, 186.71)" gradientUnits="userSpaceOnUse"><stop offset="0" stop-opacity="0"/><stop offset="0.48" stop-color="#fff"/><stop offset="0.53" stop-color="#e7e7e7" stop-opacity="0.91"/><stop offset="0.76" stop-color="#6c6c6c" stop-opacity="0.42"/><stop offset="0.93" stop-color="#1e1e1e" stop-opacity="0.12"/><stop offset="1" stop-opacity="0"/></linearGradient><clipPath id="clip-path"><rect width="1317.95" height="266.21" style="fill:none"/></clipPath><linearGradient id="linear-gradient-2" x1="-4996.08" y1="5.13" x2="6938.03" y2="5.13" gradientTransform="matrix(0.69, 0, 0, -0.69, -7.53, 136.63)" gradientUnits="userSpaceOnUse"><stop offset="0.44" stop-color="aqua"/><stop offset="0.57" stop-color="#9f00e7"/></linearGradient><linearGradient id="linear-gradient-3" x1="-4664.58" y1="4.95" x2="6606.53" y2="4.95" xlink:href="#linear-gradient-2"/><mask id="mask" x="-8.82" y="-50.08" width="1342.27" height="114.23" maskUnits="userSpaceOnUse"><g id="mask-2" data-name="mask"><rect x="-8.81" y="-50.08" width="1342.26" height="114.23" style="fill:url(#linear-gradient)"/></g></mask><linearGradient id="linear-gradient-4" x1="-1.87" y1="188.8" x2="1953.54" y2="188.8" gradientTransform="matrix(0.69, 0, 0, -0.69, -7.53, 136.63)" gradientUnits="userSpaceOnUse"><stop offset="0.33" stop-color="#42ffff"/><stop offset="0.66" stop-color="#d096e7"/></linearGradient><linearGradient id="linear-gradient-5" x1="-4996.04" y1="5.13" x2="6938" y2="5.13" gradientTransform="matrix(0.69, 0, 0, -0.69, -7.53, 136.63)" gradientUnits="userSpaceOnUse"><stop offset="0" stop-color="#fff" stop-opacity="0"/><stop offset="0.5" stop-color="#fff"/><stop offset="1" stop-color="#fff" stop-opacity="0"/></linearGradient><linearGradient id="linear-gradient-6" x1="-4664.55" y1="5.06" x2="6606.5" y2="5.06" xlink:href="#linear-gradient-5"/></defs><title>grid</title><g id="Layer_2" data-name="Layer 2"><g id="Layer_27" data-name="Layer 27"><g style="clip-path:url(#clip-path)"><polygon points="40.49 0.01 1277.46 0.01 4754.92 266.21 -3436.97 266.21 40.49 0.01" style="fill:none;stroke-miterlimit:6.864334344863892;stroke-width:1.3728668689727783px;stroke:url(#linear-gradient-2)"/><polyline points="-933.89 266.21 418.45 0.01 384.09 0.01 -1161.44 266.21 -1389 266.21 349.73 0.01 315.37 0.01 -1616.55 266.21 -3209.42 266.21 74.85 0.01 109.2 0.01 -2981.87 266.21 -2883.68 223.85 4201.63 223.85 4299.82 266.21 1208.74 0.01 1174.38 0.01 4072.27 266.21 3617.16 266.21 1105.66 0.01 1140.02 0.01 3844.71 266.21 3780.02 191.58 -2462.08 191.58 -2526.76 266.21 177.92 0.01 212.29 0.01 -2299.21 266.21 -2754.31 266.21 143.57 0.01 25.55 1.15 1292.4 1.15 1308.07 2.35 9.87 2.35 -6.6 3.61 1324.55 3.61 1341.88 4.93 -23.94 4.93 -42.2 6.34 1360.14 6.34 1379.4 7.8 -61.46 7.8 -81.8 9.36 1399.75 9.36 1421.28 11.01 -103.34 11.01 -126.16 12.76 1444.11 12.76 1468.34 14.61 -150.39 14.61 -176.17 16.59 1494.11 16.59 1521.58 18.69 -203.63 18.69 -232.97 20.94 1550.91 20.94 1582.32 23.34 -264.37 23.34 -298.07 25.92 1616.02 25.92 1652.27 28.69 -334.31 28.69 -373.42 31.69 1691.37 31.69 1733.67 34.93 -415.73 34.93 -461.65 38.44 1779.59 38.44 1829.61 42.27 -511.67 42.27 -566.36 46.46 1884.31 46.46 1944.36 51.06 -626.42 51.06 -692.67 56.13 2010.61 56.13 2084.06 61.75 -766.12 61.75 -848.01 68.02 2165.95 68.02 2257.82 75.06 -939.88 75.06 -1043.68 83 2361.63 83 2479.84 92.05 -1161.89 92.05 -1297.75 102.45 2615.7 102.45 2773.47 114.53 -1455.51 114.53 -1640.95 128.72 2958.9 128.72 2934.5 266.21 1002.58 0.01 1036.94 0.01 3162.06 266.21 3179.99 145.65 -1862.04 145.65 -1844.1 266.21 281 0.01 246.65 0.01 -2071.66 266.21 -2130.15 166.17 3448.1 166.17 3389.61 266.21 1071.3 0.01 1243.1 0.01 4527.37 266.21 2706.95 266.21 968.22 0.01 933.86 0.01 2479.4 266.21 2251.84 266.21 899.5 0.01 865.13 0.01 2024.29 266.21 1796.74 266.21 830.78 0.01 796.41 0.01 1569.19 266.21 1341.63 266.21 762.06 0.01 452.81 0.01 -706.34 266.21 -478.79 266.21 487.17 0.01 521.53 0.01 -251.24 266.21 -23.68 266.21 555.89 0.01 590.25 0.01 203.87 266.21 431.42 266.21 624.61 0.01 658.98 0.01 658.98 266.21 886.53 266.21 693.33 0.01 727.7 0.01 1114.08 266.21" style="fill:none;stroke-miterlimit:6.864334344863892;stroke-width:1.3728668689727783px;stroke:url(#linear-gradient-3)"/><g style="mask:url(#mask)"><rect x="-8.82" y="-50.08" width="1342.26" height="114.23" style="fill:url(#linear-gradient-4)"/></g><polygon points="40.49 0.01 1277.46 0.01 4754.92 266.21 -3436.97 266.21 40.49 0.01" style="fill:none;stroke-miterlimit:6.864334344863892;stroke-width:0.5148250758647919px;stroke:url(#linear-gradient-5)"/><polyline points="-933.89 266.21 418.45 0.01 384.09 0.01 -1161.44 266.21 -1389 266.21 349.73 0.01 315.37 0.01 -1616.55 266.21 -3209.42 266.21 74.85 0.01 109.2 0.01 -2981.87 266.21 -2883.68 223.85 4201.63 223.85 4299.82 266.21 1208.74 0.01 1174.38 0.01 4072.27 266.21 3617.16 266.21 1105.66 0.01 1140.02 0.01 3844.71 266.21 3780.02 191.58 -2462.08 191.58 -2526.76 266.21 177.92 0.01 212.29 0.01 -2299.21 266.21 -2754.31 266.21 143.57 0.01 25.55 1.15 1292.4 1.15 1308.07 2.35 9.87 2.35 -6.6 3.61 1324.55 3.61 1341.88 4.93 -23.94 4.93 -42.2 6.34 1360.14 6.34 1379.4 7.8 -61.46 7.8 -81.8 9.36 1399.75 9.36 1421.28 11.01 -103.34 11.01 -126.16 12.76 1444.11 12.76 1468.34 14.61 -150.39 14.61 -176.17 16.59 1494.11 16.59 1521.58 18.69 -203.63 18.69 -232.97 20.94 1550.91 20.94 1582.32 23.34 -264.37 23.34 -298.07 25.92 1616.02 25.92 1652.27 28.69 -334.31 28.69 -373.42 31.69 1691.37 31.69 1733.67 34.93 -415.73 34.93 -461.65 38.44 1779.59 38.44 1829.61 42.27 -511.67 42.27 -566.36 46.46 1884.31 46.46 1944.36 51.06 -626.42 51.06 -692.67 56.13 2010.61 56.13 2084.06 61.75 -766.12 61.75 -848.01 68.02 2165.95 68.02 2257.82 75.06 -939.88 75.06 -1043.68 83 2361.63 83 2479.84 92.05 -1161.89 92.05 -1297.75 102.45 2615.7 102.45 2773.47 114.53 -1455.51 114.53 -1640.95 128.72 2958.9 128.72 2934.5 266.21 1002.58 0.01 1036.94 0.01 3162.06 266.21 3179.99 145.65 -1862.04 145.65 -1844.1 266.21 281 0.01 246.65 0.01 -2071.66 266.21 -2130.15 166.17 3448.1 166.17 3389.61 266.21 1071.3 0.01 1243.1 0.01 4527.37 266.21 2706.95 266.21 968.22 0.01 933.86 0.01 2479.4 266.21 2251.84 266.21 899.5 0.01 865.13 0.01 2024.29 266.21 1796.74 266.21 830.78 0.01 796.41 0.01 1569.19 266.21 1341.63 266.21 762.06 0.01 452.81 0.01 -706.34 266.21 -478.79 266.21 487.17 0.01 521.53 0.01 -251.24 266.21 -23.68 266.21 555.89 0.01 590.25 0.01 203.87 266.21 431.42 266.21 624.61 0.01 658.98 0.01 658.98 266.21 886.53 266.21 693.33 0.01 727.7 0.01 1114.08 266.21" style="fill:none;stroke-miterlimit:6.864334344863892;stroke-width:0.5148250758647919px;stroke:url(#linear-gradient-6)"/></g></g></g></svg>